<mxfile host="app.diagrams.net" modified="2024-03-15T23:00:48.982Z" agent="Mozilla/5.0 (Windows NT 10.0; Win64; x64) AppleWebKit/537.36 (KHTML, like Gecko) Chrome/122.0.0.0 Safari/537.36" etag="-5GwzIA1sxdolYfei7nn" version="24.0.6" type="device" pages="3">
  <diagram id="c4obY4Xv-Zgl2g7OE5Ge" name="ER-модель в нотации Чена">
    <mxGraphModel dx="2261" dy="780" grid="1" gridSize="10" guides="1" tooltips="1" connect="1" arrows="1" fold="1" page="1" pageScale="1" pageWidth="827" pageHeight="1169" math="0" shadow="0">
      <root>
        <mxCell id="0" />
        <mxCell id="1" parent="0" />
        <mxCell id="MZJGiQRWaNMhP6PaIQoo-1" value="Пользователь" style="rounded=0;whiteSpace=wrap;html=1;" parent="1" vertex="1">
          <mxGeometry x="10" y="355" width="120" height="60" as="geometry" />
        </mxCell>
        <mxCell id="MZJGiQRWaNMhP6PaIQoo-2" value="Логин" style="ellipse;whiteSpace=wrap;html=1;" parent="1" vertex="1">
          <mxGeometry x="-70" y="290" width="120" height="40" as="geometry" />
        </mxCell>
        <mxCell id="MZJGiQRWaNMhP6PaIQoo-3" value="id" style="ellipse;whiteSpace=wrap;html=1;" parent="1" vertex="1">
          <mxGeometry x="-70" y="120" width="120" height="40" as="geometry" />
        </mxCell>
        <mxCell id="MZJGiQRWaNMhP6PaIQoo-4" value="Пароль" style="ellipse;whiteSpace=wrap;html=1;" parent="1" vertex="1">
          <mxGeometry x="-70" y="170" width="120" height="40" as="geometry" />
        </mxCell>
        <mxCell id="MZJGiQRWaNMhP6PaIQoo-5" value="Роль" style="ellipse;whiteSpace=wrap;html=1;" parent="1" vertex="1">
          <mxGeometry x="-70" y="232.5" width="120" height="40" as="geometry" />
        </mxCell>
        <mxCell id="MZJGiQRWaNMhP6PaIQoo-17" style="edgeStyle=none;rounded=0;html=1;exitX=0.5;exitY=0;exitDx=0;exitDy=0;entryX=0;entryY=0.5;entryDx=0;entryDy=0;endArrow=none;endFill=0;" parent="1" source="MZJGiQRWaNMhP6PaIQoo-10" target="MZJGiQRWaNMhP6PaIQoo-16" edge="1">
          <mxGeometry relative="1" as="geometry">
            <Array as="points">
              <mxPoint x="560" y="80" />
            </Array>
          </mxGeometry>
        </mxCell>
        <mxCell id="MZJGiQRWaNMhP6PaIQoo-19" style="edgeStyle=none;rounded=0;html=1;exitX=0.5;exitY=0;exitDx=0;exitDy=0;entryX=0;entryY=0.5;entryDx=0;entryDy=0;endArrow=none;endFill=0;" parent="1" source="MZJGiQRWaNMhP6PaIQoo-10" target="MZJGiQRWaNMhP6PaIQoo-18" edge="1">
          <mxGeometry relative="1" as="geometry">
            <Array as="points">
              <mxPoint x="560" y="140" />
            </Array>
          </mxGeometry>
        </mxCell>
        <mxCell id="MZJGiQRWaNMhP6PaIQoo-23" style="edgeStyle=none;rounded=0;html=1;exitX=0.5;exitY=0;exitDx=0;exitDy=0;entryX=1;entryY=0.5;entryDx=0;entryDy=0;endArrow=none;endFill=0;" parent="1" source="MZJGiQRWaNMhP6PaIQoo-10" target="MZJGiQRWaNMhP6PaIQoo-22" edge="1">
          <mxGeometry relative="1" as="geometry">
            <Array as="points">
              <mxPoint x="560" y="140" />
            </Array>
          </mxGeometry>
        </mxCell>
        <mxCell id="MZJGiQRWaNMhP6PaIQoo-26" style="edgeStyle=none;rounded=0;html=1;exitX=1;exitY=0.5;exitDx=0;exitDy=0;entryX=0;entryY=0.5;entryDx=0;entryDy=0;endArrow=none;endFill=0;startArrow=ERmany;startFill=0;" parent="1" source="MZJGiQRWaNMhP6PaIQoo-10" target="MZJGiQRWaNMhP6PaIQoo-25" edge="1">
          <mxGeometry relative="1" as="geometry" />
        </mxCell>
        <mxCell id="MZJGiQRWaNMhP6PaIQoo-10" value="Турнир" style="rounded=0;whiteSpace=wrap;html=1;" parent="1" vertex="1">
          <mxGeometry x="500" y="200" width="120" height="60" as="geometry" />
        </mxCell>
        <mxCell id="MZJGiQRWaNMhP6PaIQoo-11" value="Создавает" style="rhombus;whiteSpace=wrap;html=1;" parent="1" vertex="1">
          <mxGeometry x="160" y="220" width="106.5" height="50" as="geometry" />
        </mxCell>
        <mxCell id="MZJGiQRWaNMhP6PaIQoo-15" value="N" style="text;html=1;align=center;verticalAlign=middle;resizable=0;points=[];autosize=1;strokeColor=none;fillColor=none;" parent="1" vertex="1">
          <mxGeometry x="473" y="190" width="30" height="30" as="geometry" />
        </mxCell>
        <mxCell id="MZJGiQRWaNMhP6PaIQoo-16" value="id" style="ellipse;whiteSpace=wrap;html=1;" parent="1" vertex="1">
          <mxGeometry x="590" y="60" width="120" height="40" as="geometry" />
        </mxCell>
        <mxCell id="MZJGiQRWaNMhP6PaIQoo-18" value="id страны" style="ellipse;whiteSpace=wrap;html=1;" parent="1" vertex="1">
          <mxGeometry x="590" y="120" width="120" height="40" as="geometry" />
        </mxCell>
        <mxCell id="MZJGiQRWaNMhP6PaIQoo-21" style="edgeStyle=none;rounded=0;html=1;exitX=1;exitY=0.5;exitDx=0;exitDy=0;entryX=0.5;entryY=0;entryDx=0;entryDy=0;endArrow=none;endFill=0;" parent="1" source="MZJGiQRWaNMhP6PaIQoo-20" target="MZJGiQRWaNMhP6PaIQoo-10" edge="1">
          <mxGeometry relative="1" as="geometry">
            <Array as="points">
              <mxPoint x="560" y="80" />
            </Array>
          </mxGeometry>
        </mxCell>
        <mxCell id="MZJGiQRWaNMhP6PaIQoo-20" value="Название" style="ellipse;whiteSpace=wrap;html=1;" parent="1" vertex="1">
          <mxGeometry x="413" y="60" width="120" height="40" as="geometry" />
        </mxCell>
        <mxCell id="MZJGiQRWaNMhP6PaIQoo-22" value="id пользователя" style="ellipse;whiteSpace=wrap;html=1;" parent="1" vertex="1">
          <mxGeometry x="413" y="120" width="120" height="40" as="geometry" />
        </mxCell>
        <mxCell id="MZJGiQRWaNMhP6PaIQoo-24" value="Команда" style="rounded=0;whiteSpace=wrap;html=1;" parent="1" vertex="1">
          <mxGeometry x="680" y="340" width="120" height="60" as="geometry" />
        </mxCell>
        <mxCell id="MZJGiQRWaNMhP6PaIQoo-33" style="edgeStyle=none;rounded=0;html=1;exitX=1;exitY=0.5;exitDx=0;exitDy=0;entryX=0.25;entryY=0;entryDx=0;entryDy=0;startArrow=none;startFill=0;endArrow=ERmany;endFill=0;" parent="1" source="MZJGiQRWaNMhP6PaIQoo-25" target="MZJGiQRWaNMhP6PaIQoo-24" edge="1">
          <mxGeometry relative="1" as="geometry">
            <Array as="points">
              <mxPoint x="780" y="230" />
              <mxPoint x="780" y="280" />
              <mxPoint x="740" y="280" />
              <mxPoint x="710" y="280" />
              <mxPoint x="710" y="320" />
            </Array>
          </mxGeometry>
        </mxCell>
        <mxCell id="MZJGiQRWaNMhP6PaIQoo-25" value="Играет в" style="rhombus;whiteSpace=wrap;html=1;" parent="1" vertex="1">
          <mxGeometry x="660" y="205" width="106.5" height="50" as="geometry" />
        </mxCell>
        <mxCell id="MZJGiQRWaNMhP6PaIQoo-27" value="N" style="text;html=1;align=center;verticalAlign=middle;resizable=0;points=[];autosize=1;strokeColor=none;fillColor=none;" parent="1" vertex="1">
          <mxGeometry x="620" y="200" width="30" height="30" as="geometry" />
        </mxCell>
        <mxCell id="MZJGiQRWaNMhP6PaIQoo-28" value="id" style="ellipse;whiteSpace=wrap;html=1;" parent="1" vertex="1">
          <mxGeometry x="736.75" y="60" width="120" height="40" as="geometry" />
        </mxCell>
        <mxCell id="MZJGiQRWaNMhP6PaIQoo-30" value="Название" style="ellipse;whiteSpace=wrap;html=1;" parent="1" vertex="1">
          <mxGeometry x="736.75" y="120" width="120" height="40" as="geometry" />
        </mxCell>
        <mxCell id="MZJGiQRWaNMhP6PaIQoo-34" value="М" style="text;html=1;align=center;verticalAlign=middle;resizable=0;points=[];autosize=1;strokeColor=none;fillColor=none;" parent="1" vertex="1">
          <mxGeometry x="680" y="310" width="30" height="30" as="geometry" />
        </mxCell>
        <mxCell id="MZJGiQRWaNMhP6PaIQoo-44" style="edgeStyle=none;rounded=0;html=1;exitX=0.5;exitY=1;exitDx=0;exitDy=0;entryX=0;entryY=0.5;entryDx=0;entryDy=0;startArrow=none;startFill=0;endArrow=none;endFill=0;" parent="1" source="MZJGiQRWaNMhP6PaIQoo-36" target="MZJGiQRWaNMhP6PaIQoo-38" edge="1">
          <mxGeometry relative="1" as="geometry">
            <Array as="points">
              <mxPoint x="223" y="490" />
            </Array>
          </mxGeometry>
        </mxCell>
        <mxCell id="MZJGiQRWaNMhP6PaIQoo-52" style="edgeStyle=none;rounded=0;html=1;exitX=1;exitY=0.5;exitDx=0;exitDy=0;entryX=0;entryY=0.5;entryDx=0;entryDy=0;startArrow=ERmany;startFill=0;endArrow=none;endFill=0;" parent="1" source="MZJGiQRWaNMhP6PaIQoo-36" target="MZJGiQRWaNMhP6PaIQoo-51" edge="1">
          <mxGeometry relative="1" as="geometry" />
        </mxCell>
        <mxCell id="MZJGiQRWaNMhP6PaIQoo-58" style="edgeStyle=none;rounded=0;html=1;exitX=0.5;exitY=0;exitDx=0;exitDy=0;entryX=0;entryY=0.5;entryDx=0;entryDy=0;startArrow=ERmany;startFill=0;endArrow=none;endFill=0;" parent="1" source="MZJGiQRWaNMhP6PaIQoo-36" target="MZJGiQRWaNMhP6PaIQoo-56" edge="1">
          <mxGeometry relative="1" as="geometry">
            <Array as="points">
              <mxPoint x="223" y="305" />
            </Array>
          </mxGeometry>
        </mxCell>
        <mxCell id="MZJGiQRWaNMhP6PaIQoo-36" value="Матч" style="rounded=0;whiteSpace=wrap;html=1;" parent="1" vertex="1">
          <mxGeometry x="163" y="370" width="120" height="60" as="geometry" />
        </mxCell>
        <mxCell id="MZJGiQRWaNMhP6PaIQoo-38" value="id" style="ellipse;whiteSpace=wrap;html=1;" parent="1" vertex="1">
          <mxGeometry x="265" y="470" width="120" height="40" as="geometry" />
        </mxCell>
        <mxCell id="MZJGiQRWaNMhP6PaIQoo-46" style="edgeStyle=none;rounded=0;html=1;exitX=0;exitY=0.5;exitDx=0;exitDy=0;entryX=0.5;entryY=1;entryDx=0;entryDy=0;startArrow=none;startFill=0;endArrow=none;endFill=0;" parent="1" source="MZJGiQRWaNMhP6PaIQoo-39" target="MZJGiQRWaNMhP6PaIQoo-36" edge="1">
          <mxGeometry relative="1" as="geometry">
            <Array as="points">
              <mxPoint x="223" y="555" />
            </Array>
          </mxGeometry>
        </mxCell>
        <mxCell id="MZJGiQRWaNMhP6PaIQoo-39" value="id турнира" style="ellipse;whiteSpace=wrap;html=1;" parent="1" vertex="1">
          <mxGeometry x="265" y="535" width="120" height="40" as="geometry" />
        </mxCell>
        <mxCell id="MZJGiQRWaNMhP6PaIQoo-47" style="edgeStyle=none;rounded=0;html=1;exitX=1;exitY=0.5;exitDx=0;exitDy=0;entryX=0.5;entryY=1;entryDx=0;entryDy=0;startArrow=none;startFill=0;endArrow=none;endFill=0;" parent="1" source="MZJGiQRWaNMhP6PaIQoo-40" target="MZJGiQRWaNMhP6PaIQoo-36" edge="1">
          <mxGeometry relative="1" as="geometry">
            <Array as="points">
              <mxPoint x="223" y="490" />
            </Array>
          </mxGeometry>
        </mxCell>
        <mxCell id="MZJGiQRWaNMhP6PaIQoo-40" value="id домашней команды" style="ellipse;whiteSpace=wrap;html=1;" parent="1" vertex="1">
          <mxGeometry x="70" y="470" width="120" height="40" as="geometry" />
        </mxCell>
        <mxCell id="MZJGiQRWaNMhP6PaIQoo-49" style="edgeStyle=none;rounded=0;html=1;exitX=1;exitY=0.5;exitDx=0;exitDy=0;entryX=0.5;entryY=1;entryDx=0;entryDy=0;startArrow=none;startFill=0;endArrow=none;endFill=0;" parent="1" source="MZJGiQRWaNMhP6PaIQoo-41" target="MZJGiQRWaNMhP6PaIQoo-36" edge="1">
          <mxGeometry relative="1" as="geometry">
            <Array as="points">
              <mxPoint x="223" y="555" />
            </Array>
          </mxGeometry>
        </mxCell>
        <mxCell id="MZJGiQRWaNMhP6PaIQoo-41" value="id гостевой команды" style="ellipse;whiteSpace=wrap;html=1;" parent="1" vertex="1">
          <mxGeometry x="70" y="535" width="120" height="40" as="geometry" />
        </mxCell>
        <mxCell id="MZJGiQRWaNMhP6PaIQoo-50" style="edgeStyle=none;rounded=0;html=1;exitX=1;exitY=0.5;exitDx=0;exitDy=0;entryX=0.5;entryY=1;entryDx=0;entryDy=0;startArrow=none;startFill=0;endArrow=none;endFill=0;" parent="1" source="MZJGiQRWaNMhP6PaIQoo-42" target="MZJGiQRWaNMhP6PaIQoo-36" edge="1">
          <mxGeometry relative="1" as="geometry">
            <Array as="points">
              <mxPoint x="223" y="620" />
            </Array>
          </mxGeometry>
        </mxCell>
        <mxCell id="MZJGiQRWaNMhP6PaIQoo-42" value="Голы гостевой команды" style="ellipse;whiteSpace=wrap;html=1;" parent="1" vertex="1">
          <mxGeometry x="70" y="600" width="120" height="40" as="geometry" />
        </mxCell>
        <mxCell id="MZJGiQRWaNMhP6PaIQoo-45" style="edgeStyle=none;rounded=0;html=1;exitX=0;exitY=0.5;exitDx=0;exitDy=0;entryX=0.5;entryY=1;entryDx=0;entryDy=0;startArrow=none;startFill=0;endArrow=none;endFill=0;" parent="1" source="MZJGiQRWaNMhP6PaIQoo-43" target="MZJGiQRWaNMhP6PaIQoo-36" edge="1">
          <mxGeometry relative="1" as="geometry">
            <Array as="points">
              <mxPoint x="223" y="620" />
            </Array>
          </mxGeometry>
        </mxCell>
        <mxCell id="MZJGiQRWaNMhP6PaIQoo-43" value="Голы домашней команды" style="ellipse;whiteSpace=wrap;html=1;" parent="1" vertex="1">
          <mxGeometry x="265" y="600" width="120" height="40" as="geometry" />
        </mxCell>
        <mxCell id="MZJGiQRWaNMhP6PaIQoo-53" style="edgeStyle=none;rounded=0;html=1;exitX=1;exitY=0.5;exitDx=0;exitDy=0;entryX=0;entryY=0.5;entryDx=0;entryDy=0;startArrow=none;startFill=0;endArrow=none;endFill=0;" parent="1" source="MZJGiQRWaNMhP6PaIQoo-51" target="MZJGiQRWaNMhP6PaIQoo-24" edge="1">
          <mxGeometry relative="1" as="geometry">
            <Array as="points">
              <mxPoint x="660" y="400" />
              <mxPoint x="660" y="370" />
            </Array>
          </mxGeometry>
        </mxCell>
        <mxCell id="MZJGiQRWaNMhP6PaIQoo-51" value="Играет" style="rhombus;whiteSpace=wrap;html=1;" parent="1" vertex="1">
          <mxGeometry x="431.75" y="375" width="106.5" height="50" as="geometry" />
        </mxCell>
        <mxCell id="MZJGiQRWaNMhP6PaIQoo-54" value="N" style="text;html=1;align=center;verticalAlign=middle;resizable=0;points=[];autosize=1;strokeColor=none;fillColor=none;" parent="1" vertex="1">
          <mxGeometry x="283" y="370" width="30" height="30" as="geometry" />
        </mxCell>
        <mxCell id="MZJGiQRWaNMhP6PaIQoo-55" value="2" style="text;html=1;align=center;verticalAlign=middle;resizable=0;points=[];autosize=1;strokeColor=none;fillColor=none;" parent="1" vertex="1">
          <mxGeometry x="650" y="340" width="30" height="30" as="geometry" />
        </mxCell>
        <mxCell id="MZJGiQRWaNMhP6PaIQoo-59" style="edgeStyle=none;rounded=0;html=1;exitX=1;exitY=0.5;exitDx=0;exitDy=0;entryX=0.5;entryY=1;entryDx=0;entryDy=0;startArrow=none;startFill=0;endArrow=none;endFill=0;" parent="1" source="MZJGiQRWaNMhP6PaIQoo-56" target="MZJGiQRWaNMhP6PaIQoo-10" edge="1">
          <mxGeometry relative="1" as="geometry">
            <Array as="points">
              <mxPoint x="560" y="305" />
              <mxPoint x="560" y="280" />
            </Array>
          </mxGeometry>
        </mxCell>
        <mxCell id="MZJGiQRWaNMhP6PaIQoo-56" value="Состоит из" style="rhombus;whiteSpace=wrap;html=1;" parent="1" vertex="1">
          <mxGeometry x="244.75" y="280" width="106.5" height="50" as="geometry" />
        </mxCell>
        <mxCell id="MZJGiQRWaNMhP6PaIQoo-60" value="1" style="text;html=1;align=center;verticalAlign=middle;resizable=0;points=[];autosize=1;strokeColor=none;fillColor=none;" parent="1" vertex="1">
          <mxGeometry x="533" y="255" width="30" height="30" as="geometry" />
        </mxCell>
        <mxCell id="MZJGiQRWaNMhP6PaIQoo-61" value="N" style="text;html=1;align=center;verticalAlign=middle;resizable=0;points=[];autosize=1;strokeColor=none;fillColor=none;" parent="1" vertex="1">
          <mxGeometry x="190" y="340" width="30" height="30" as="geometry" />
        </mxCell>
        <mxCell id="MZJGiQRWaNMhP6PaIQoo-78" style="edgeStyle=none;rounded=0;html=1;exitX=1;exitY=0.5;exitDx=0;exitDy=0;startArrow=none;startFill=0;endArrow=none;endFill=0;" parent="1" source="MZJGiQRWaNMhP6PaIQoo-62" target="MZJGiQRWaNMhP6PaIQoo-75" edge="1">
          <mxGeometry relative="1" as="geometry" />
        </mxCell>
        <mxCell id="MZJGiQRWaNMhP6PaIQoo-62" value="Стадион" style="rounded=0;whiteSpace=wrap;html=1;" parent="1" vertex="1">
          <mxGeometry x="913" y="230" width="120" height="60" as="geometry" />
        </mxCell>
        <mxCell id="MZJGiQRWaNMhP6PaIQoo-72" style="edgeStyle=none;rounded=0;html=1;exitX=1;exitY=0.5;exitDx=0;exitDy=0;entryX=0.5;entryY=1;entryDx=0;entryDy=0;startArrow=none;startFill=0;endArrow=none;endFill=0;" parent="1" source="MZJGiQRWaNMhP6PaIQoo-70" target="MZJGiQRWaNMhP6PaIQoo-62" edge="1">
          <mxGeometry relative="1" as="geometry">
            <Array as="points">
              <mxPoint x="973" y="370" />
            </Array>
          </mxGeometry>
        </mxCell>
        <mxCell id="MZJGiQRWaNMhP6PaIQoo-70" value="Имеет" style="rhombus;whiteSpace=wrap;html=1;" parent="1" vertex="1">
          <mxGeometry x="860" y="345" width="106.5" height="50" as="geometry" />
        </mxCell>
        <mxCell id="MZJGiQRWaNMhP6PaIQoo-74" value="1" style="text;html=1;align=center;verticalAlign=middle;resizable=0;points=[];autosize=1;strokeColor=none;fillColor=none;" parent="1" vertex="1">
          <mxGeometry x="970" y="290" width="30" height="30" as="geometry" />
        </mxCell>
        <mxCell id="MZJGiQRWaNMhP6PaIQoo-75" value="id" style="ellipse;whiteSpace=wrap;html=1;" parent="1" vertex="1">
          <mxGeometry x="1090" y="240" width="120" height="40" as="geometry" />
        </mxCell>
        <mxCell id="MZJGiQRWaNMhP6PaIQoo-79" style="edgeStyle=none;rounded=0;html=1;exitX=0;exitY=0.5;exitDx=0;exitDy=0;startArrow=none;startFill=0;endArrow=none;endFill=0;" parent="1" source="MZJGiQRWaNMhP6PaIQoo-76" edge="1">
          <mxGeometry relative="1" as="geometry">
            <mxPoint x="1030" y="260" as="targetPoint" />
            <Array as="points">
              <mxPoint x="1060" y="335" />
              <mxPoint x="1060" y="260" />
            </Array>
          </mxGeometry>
        </mxCell>
        <mxCell id="MZJGiQRWaNMhP6PaIQoo-76" value="Название" style="ellipse;whiteSpace=wrap;html=1;" parent="1" vertex="1">
          <mxGeometry x="1090" y="315" width="120" height="40" as="geometry" />
        </mxCell>
        <mxCell id="MZJGiQRWaNMhP6PaIQoo-80" style="edgeStyle=none;rounded=0;html=1;exitX=0;exitY=0.5;exitDx=0;exitDy=0;entryX=1;entryY=0.5;entryDx=0;entryDy=0;startArrow=none;startFill=0;endArrow=none;endFill=0;" parent="1" source="MZJGiQRWaNMhP6PaIQoo-77" target="MZJGiQRWaNMhP6PaIQoo-62" edge="1">
          <mxGeometry relative="1" as="geometry">
            <Array as="points">
              <mxPoint x="1060" y="405" />
              <mxPoint x="1060" y="260" />
            </Array>
          </mxGeometry>
        </mxCell>
        <mxCell id="MZJGiQRWaNMhP6PaIQoo-77" value="Город" style="ellipse;whiteSpace=wrap;html=1;" parent="1" vertex="1">
          <mxGeometry x="1090" y="385" width="120" height="40" as="geometry" />
        </mxCell>
        <mxCell id="Ouhq65F0EKyfV9j2BLgb-1" value="Количество мест" style="ellipse;whiteSpace=wrap;html=1;" parent="1" vertex="1">
          <mxGeometry x="1096.75" y="450" width="120" height="40" as="geometry" />
        </mxCell>
        <mxCell id="Ouhq65F0EKyfV9j2BLgb-2" value="" style="endArrow=none;html=1;rounded=0;exitX=0;exitY=0.5;exitDx=0;exitDy=0;" parent="1" source="Ouhq65F0EKyfV9j2BLgb-1" edge="1">
          <mxGeometry width="50" height="50" relative="1" as="geometry">
            <mxPoint x="970" y="520" as="sourcePoint" />
            <mxPoint x="1060" y="260" as="targetPoint" />
            <Array as="points">
              <mxPoint x="1060" y="470" />
            </Array>
          </mxGeometry>
        </mxCell>
        <mxCell id="Ouhq65F0EKyfV9j2BLgb-3" value="Год создание" style="ellipse;whiteSpace=wrap;html=1;" parent="1" vertex="1">
          <mxGeometry x="916.75" y="60" width="120" height="40" as="geometry" />
        </mxCell>
        <mxCell id="Ouhq65F0EKyfV9j2BLgb-4" value="id_тренера" style="ellipse;whiteSpace=wrap;html=1;" parent="1" vertex="1">
          <mxGeometry x="916.75" y="120" width="120" height="40" as="geometry" />
        </mxCell>
        <mxCell id="Ouhq65F0EKyfV9j2BLgb-5" value="id cтадиона" style="ellipse;whiteSpace=wrap;html=1;" parent="1" vertex="1">
          <mxGeometry x="916.75" y="172.5" width="120" height="40" as="geometry" />
        </mxCell>
        <mxCell id="E7wvHHjbwRv63QAG3eaN-5" value="1" style="text;html=1;align=center;verticalAlign=middle;resizable=0;points=[];autosize=1;strokeColor=none;fillColor=none;" parent="1" vertex="1">
          <mxGeometry x="685" y="398" width="30" height="30" as="geometry" />
        </mxCell>
        <mxCell id="MZJGiQRWaNMhP6PaIQoo-32" value="Страна" style="ellipse;whiteSpace=wrap;html=1;" parent="1" vertex="1">
          <mxGeometry x="736.75" y="175" width="120" height="35" as="geometry" />
        </mxCell>
        <mxCell id="E7wvHHjbwRv63QAG3eaN-11" value="" style="endArrow=none;html=1;rounded=0;exitX=0.915;exitY=0.015;exitDx=0;exitDy=0;exitPerimeter=0;" parent="1" source="MZJGiQRWaNMhP6PaIQoo-24" edge="1">
          <mxGeometry width="50" height="50" relative="1" as="geometry">
            <mxPoint x="760.48" y="349.61" as="sourcePoint" />
            <mxPoint x="894" y="80.39" as="targetPoint" />
            <Array as="points">
              <mxPoint x="790" y="340" />
              <mxPoint x="790" y="260" />
              <mxPoint x="894" y="260" />
              <mxPoint x="894" y="210.39" />
            </Array>
          </mxGeometry>
        </mxCell>
        <mxCell id="E7wvHHjbwRv63QAG3eaN-12" value="" style="endArrow=none;html=1;rounded=0;entryX=0;entryY=0.5;entryDx=0;entryDy=0;exitX=1;exitY=0.5;exitDx=0;exitDy=0;" parent="1" source="MZJGiQRWaNMhP6PaIQoo-28" target="Ouhq65F0EKyfV9j2BLgb-3" edge="1">
          <mxGeometry width="50" height="50" relative="1" as="geometry">
            <mxPoint x="716.75" y="290" as="sourcePoint" />
            <mxPoint x="766.75" y="240" as="targetPoint" />
          </mxGeometry>
        </mxCell>
        <mxCell id="E7wvHHjbwRv63QAG3eaN-13" value="" style="endArrow=none;html=1;rounded=0;entryX=0;entryY=0.5;entryDx=0;entryDy=0;exitX=1;exitY=0.5;exitDx=0;exitDy=0;" parent="1" source="MZJGiQRWaNMhP6PaIQoo-30" target="Ouhq65F0EKyfV9j2BLgb-4" edge="1">
          <mxGeometry width="50" height="50" relative="1" as="geometry">
            <mxPoint x="776.75" y="200" as="sourcePoint" />
            <mxPoint x="826.75" y="150" as="targetPoint" />
          </mxGeometry>
        </mxCell>
        <mxCell id="E7wvHHjbwRv63QAG3eaN-14" value="" style="endArrow=none;html=1;rounded=0;entryX=0;entryY=0.5;entryDx=0;entryDy=0;exitX=1;exitY=0.5;exitDx=0;exitDy=0;" parent="1" source="MZJGiQRWaNMhP6PaIQoo-32" target="Ouhq65F0EKyfV9j2BLgb-5" edge="1">
          <mxGeometry width="50" height="50" relative="1" as="geometry">
            <mxPoint x="866.75" y="200" as="sourcePoint" />
            <mxPoint x="826.75" y="150" as="targetPoint" />
          </mxGeometry>
        </mxCell>
        <mxCell id="E7wvHHjbwRv63QAG3eaN-22" value="1" style="text;html=1;align=center;verticalAlign=middle;resizable=0;points=[];autosize=1;strokeColor=none;fillColor=none;" parent="1" vertex="1">
          <mxGeometry x="750" y="395" width="30" height="30" as="geometry" />
        </mxCell>
        <mxCell id="E7wvHHjbwRv63QAG3eaN-28" value="" style="endArrow=none;html=1;rounded=0;entryX=0;entryY=0.5;entryDx=0;entryDy=0;exitX=1;exitY=0.5;exitDx=0;exitDy=0;" parent="1" source="MZJGiQRWaNMhP6PaIQoo-24" target="MZJGiQRWaNMhP6PaIQoo-70" edge="1">
          <mxGeometry width="50" height="50" relative="1" as="geometry">
            <mxPoint x="800" y="390" as="sourcePoint" />
            <mxPoint x="850" y="340" as="targetPoint" />
          </mxGeometry>
        </mxCell>
        <mxCell id="E7wvHHjbwRv63QAG3eaN-30" value="1" style="text;html=1;align=center;verticalAlign=middle;resizable=0;points=[];autosize=1;strokeColor=none;fillColor=none;" parent="1" vertex="1">
          <mxGeometry x="795" y="348" width="30" height="30" as="geometry" />
        </mxCell>
        <mxCell id="E7wvHHjbwRv63QAG3eaN-32" value="Страна" style="rounded=0;whiteSpace=wrap;html=1;" parent="1" vertex="1">
          <mxGeometry x="160" y="140" width="120" height="60" as="geometry" />
        </mxCell>
        <mxCell id="E7wvHHjbwRv63QAG3eaN-33" value="id" style="ellipse;whiteSpace=wrap;html=1;" parent="1" vertex="1">
          <mxGeometry x="30" y="60" width="120" height="40" as="geometry" />
        </mxCell>
        <mxCell id="E7wvHHjbwRv63QAG3eaN-34" value="Название" style="ellipse;whiteSpace=wrap;html=1;" parent="1" vertex="1">
          <mxGeometry x="160" y="60" width="120" height="40" as="geometry" />
        </mxCell>
        <mxCell id="E7wvHHjbwRv63QAG3eaN-35" value="Континент" style="ellipse;whiteSpace=wrap;html=1;" parent="1" vertex="1">
          <mxGeometry x="290" y="60" width="120" height="40" as="geometry" />
        </mxCell>
        <mxCell id="E7wvHHjbwRv63QAG3eaN-37" value="" style="endArrow=none;html=1;rounded=0;entryX=0.5;entryY=1;entryDx=0;entryDy=0;exitX=0.5;exitY=0;exitDx=0;exitDy=0;" parent="1" source="E7wvHHjbwRv63QAG3eaN-32" target="E7wvHHjbwRv63QAG3eaN-33" edge="1">
          <mxGeometry width="50" height="50" relative="1" as="geometry">
            <mxPoint x="450" y="290" as="sourcePoint" />
            <mxPoint x="500" y="240" as="targetPoint" />
            <Array as="points">
              <mxPoint x="220" y="120" />
              <mxPoint x="90" y="120" />
            </Array>
          </mxGeometry>
        </mxCell>
        <mxCell id="E7wvHHjbwRv63QAG3eaN-38" value="" style="endArrow=none;html=1;rounded=0;entryX=0.5;entryY=1;entryDx=0;entryDy=0;" parent="1" target="E7wvHHjbwRv63QAG3eaN-35" edge="1">
          <mxGeometry width="50" height="50" relative="1" as="geometry">
            <mxPoint x="220" y="140" as="sourcePoint" />
            <mxPoint x="500" y="240" as="targetPoint" />
            <Array as="points">
              <mxPoint x="220" y="120" />
              <mxPoint x="350" y="120" />
            </Array>
          </mxGeometry>
        </mxCell>
        <mxCell id="E7wvHHjbwRv63QAG3eaN-39" value="" style="endArrow=none;html=1;rounded=0;entryX=0.5;entryY=1;entryDx=0;entryDy=0;exitX=0.5;exitY=0;exitDx=0;exitDy=0;" parent="1" source="E7wvHHjbwRv63QAG3eaN-32" target="E7wvHHjbwRv63QAG3eaN-34" edge="1">
          <mxGeometry width="50" height="50" relative="1" as="geometry">
            <mxPoint x="450" y="290" as="sourcePoint" />
            <mxPoint x="500" y="240" as="targetPoint" />
            <Array as="points">
              <mxPoint x="220" y="120" />
            </Array>
          </mxGeometry>
        </mxCell>
        <mxCell id="E7wvHHjbwRv63QAG3eaN-41" value="" style="endArrow=none;html=1;rounded=0;exitX=1;exitY=0.5;exitDx=0;exitDy=0;entryX=0.5;entryY=0;entryDx=0;entryDy=0;" parent="1" source="MZJGiQRWaNMhP6PaIQoo-2" target="MZJGiQRWaNMhP6PaIQoo-1" edge="1">
          <mxGeometry width="50" height="50" relative="1" as="geometry">
            <mxPoint x="470" y="310" as="sourcePoint" />
            <mxPoint x="520" y="260" as="targetPoint" />
            <Array as="points">
              <mxPoint x="70" y="310" />
            </Array>
          </mxGeometry>
        </mxCell>
        <mxCell id="E7wvHHjbwRv63QAG3eaN-43" value="" style="endArrow=none;html=1;rounded=0;exitX=1;exitY=0.5;exitDx=0;exitDy=0;entryX=0.5;entryY=0;entryDx=0;entryDy=0;" parent="1" source="MZJGiQRWaNMhP6PaIQoo-3" target="MZJGiQRWaNMhP6PaIQoo-1" edge="1">
          <mxGeometry width="50" height="50" relative="1" as="geometry">
            <mxPoint x="470" y="310" as="sourcePoint" />
            <mxPoint x="520" y="260" as="targetPoint" />
            <Array as="points">
              <mxPoint x="70" y="140" />
            </Array>
          </mxGeometry>
        </mxCell>
        <mxCell id="E7wvHHjbwRv63QAG3eaN-44" value="" style="endArrow=none;html=1;rounded=0;exitX=1;exitY=0.5;exitDx=0;exitDy=0;entryX=0.5;entryY=0;entryDx=0;entryDy=0;" parent="1" source="MZJGiQRWaNMhP6PaIQoo-4" target="MZJGiQRWaNMhP6PaIQoo-1" edge="1">
          <mxGeometry width="50" height="50" relative="1" as="geometry">
            <mxPoint x="470" y="310" as="sourcePoint" />
            <mxPoint x="70" y="350" as="targetPoint" />
            <Array as="points">
              <mxPoint x="70" y="190" />
            </Array>
          </mxGeometry>
        </mxCell>
        <mxCell id="E7wvHHjbwRv63QAG3eaN-45" value="" style="endArrow=none;html=1;rounded=0;exitX=1;exitY=0.5;exitDx=0;exitDy=0;entryX=0.5;entryY=0;entryDx=0;entryDy=0;" parent="1" source="MZJGiQRWaNMhP6PaIQoo-5" target="MZJGiQRWaNMhP6PaIQoo-1" edge="1">
          <mxGeometry width="50" height="50" relative="1" as="geometry">
            <mxPoint x="470" y="310" as="sourcePoint" />
            <mxPoint x="520" y="260" as="targetPoint" />
            <Array as="points">
              <mxPoint x="70" y="253" />
            </Array>
          </mxGeometry>
        </mxCell>
        <mxCell id="E7wvHHjbwRv63QAG3eaN-47" value="Проводится в" style="rhombus;whiteSpace=wrap;html=1;" parent="1" vertex="1">
          <mxGeometry x="351.25" y="190" width="106.5" height="50" as="geometry" />
        </mxCell>
        <mxCell id="E7wvHHjbwRv63QAG3eaN-48" value="" style="edgeStyle=orthogonalEdgeStyle;fontSize=12;html=1;endArrow=ERmany;rounded=0;entryX=0;entryY=0.5;entryDx=0;entryDy=0;" parent="1" edge="1">
          <mxGeometry width="100" height="100" relative="1" as="geometry">
            <mxPoint x="460" y="215" as="sourcePoint" />
            <mxPoint x="500" y="215" as="targetPoint" />
            <Array as="points">
              <mxPoint x="458" y="215" />
            </Array>
          </mxGeometry>
        </mxCell>
        <mxCell id="E7wvHHjbwRv63QAG3eaN-53" value="" style="endArrow=none;html=1;rounded=0;entryX=0;entryY=0.5;entryDx=0;entryDy=0;exitX=1;exitY=0.5;exitDx=0;exitDy=0;" parent="1" source="MZJGiQRWaNMhP6PaIQoo-1" target="MZJGiQRWaNMhP6PaIQoo-11" edge="1">
          <mxGeometry width="50" height="50" relative="1" as="geometry">
            <mxPoint x="100" y="320" as="sourcePoint" />
            <mxPoint x="150" y="270" as="targetPoint" />
            <Array as="points">
              <mxPoint x="160" y="385" />
            </Array>
          </mxGeometry>
        </mxCell>
        <mxCell id="E7wvHHjbwRv63QAG3eaN-55" value="" style="endArrow=none;html=1;rounded=0;exitX=1;exitY=0.5;exitDx=0;exitDy=0;entryX=0;entryY=0.5;entryDx=0;entryDy=0;" parent="1" source="E7wvHHjbwRv63QAG3eaN-32" target="E7wvHHjbwRv63QAG3eaN-47" edge="1">
          <mxGeometry width="50" height="50" relative="1" as="geometry">
            <mxPoint x="390" y="320" as="sourcePoint" />
            <mxPoint x="440" y="270" as="targetPoint" />
            <Array as="points">
              <mxPoint x="310" y="170" />
              <mxPoint x="310" y="215" />
            </Array>
          </mxGeometry>
        </mxCell>
        <mxCell id="E7wvHHjbwRv63QAG3eaN-56" value="" style="edgeStyle=orthogonalEdgeStyle;fontSize=12;html=1;endArrow=ERmany;rounded=0;entryX=0;entryY=0.75;entryDx=0;entryDy=0;exitX=1;exitY=0.5;exitDx=0;exitDy=0;" parent="1" source="MZJGiQRWaNMhP6PaIQoo-11" target="MZJGiQRWaNMhP6PaIQoo-10" edge="1">
          <mxGeometry width="100" height="100" relative="1" as="geometry">
            <mxPoint x="460" y="370" as="sourcePoint" />
            <mxPoint x="560" y="270" as="targetPoint" />
            <Array as="points" />
          </mxGeometry>
        </mxCell>
        <mxCell id="E7wvHHjbwRv63QAG3eaN-57" value="N" style="text;html=1;align=center;verticalAlign=middle;resizable=0;points=[];autosize=1;strokeColor=none;fillColor=none;" parent="1" vertex="1">
          <mxGeometry x="473" y="220" width="30" height="30" as="geometry" />
        </mxCell>
        <mxCell id="E7wvHHjbwRv63QAG3eaN-59" value="1" style="text;html=1;align=center;verticalAlign=middle;resizable=0;points=[];autosize=1;strokeColor=none;fillColor=none;" parent="1" vertex="1">
          <mxGeometry x="120" y="355" width="30" height="30" as="geometry" />
        </mxCell>
        <mxCell id="Kz7M87pStebf-G6dgFen-3" value="1" style="text;html=1;align=center;verticalAlign=middle;resizable=0;points=[];autosize=1;strokeColor=none;fillColor=none;" parent="1" vertex="1">
          <mxGeometry x="275" y="148" width="30" height="30" as="geometry" />
        </mxCell>
        <mxCell id="Kz7M87pStebf-G6dgFen-4" style="edgeStyle=none;rounded=0;html=1;exitX=1;exitY=0.5;exitDx=0;exitDy=0;startArrow=none;startFill=0;endArrow=none;endFill=0;" parent="1" source="Kz7M87pStebf-G6dgFen-5" target="Kz7M87pStebf-G6dgFen-8" edge="1">
          <mxGeometry relative="1" as="geometry" />
        </mxCell>
        <mxCell id="Kz7M87pStebf-G6dgFen-5" value="Отзыв" style="rounded=0;whiteSpace=wrap;html=1;" parent="1" vertex="1">
          <mxGeometry x="1290" y="270" width="120" height="60" as="geometry" />
        </mxCell>
        <mxCell id="Kz7M87pStebf-G6dgFen-6" style="edgeStyle=none;rounded=0;html=1;exitX=1;exitY=0.5;exitDx=0;exitDy=0;entryX=0.5;entryY=1;entryDx=0;entryDy=0;startArrow=none;startFill=0;endArrow=none;endFill=0;" parent="1" target="Kz7M87pStebf-G6dgFen-5" edge="1">
          <mxGeometry relative="1" as="geometry">
            <Array as="points">
              <mxPoint x="1350" y="410" />
            </Array>
            <mxPoint x="1344" y="410" as="sourcePoint" />
          </mxGeometry>
        </mxCell>
        <mxCell id="Kz7M87pStebf-G6dgFen-7" value="1" style="text;html=1;align=center;verticalAlign=middle;resizable=0;points=[];autosize=1;strokeColor=none;fillColor=none;" parent="1" vertex="1">
          <mxGeometry x="1347" y="330" width="30" height="30" as="geometry" />
        </mxCell>
        <mxCell id="Kz7M87pStebf-G6dgFen-8" value="id" style="ellipse;whiteSpace=wrap;html=1;" parent="1" vertex="1">
          <mxGeometry x="1467" y="280" width="120" height="40" as="geometry" />
        </mxCell>
        <mxCell id="Kz7M87pStebf-G6dgFen-9" style="edgeStyle=none;rounded=0;html=1;exitX=0;exitY=0.5;exitDx=0;exitDy=0;startArrow=none;startFill=0;endArrow=none;endFill=0;" parent="1" source="Kz7M87pStebf-G6dgFen-10" edge="1">
          <mxGeometry relative="1" as="geometry">
            <mxPoint x="1407" y="300" as="targetPoint" />
            <Array as="points">
              <mxPoint x="1437" y="375" />
              <mxPoint x="1437" y="300" />
            </Array>
          </mxGeometry>
        </mxCell>
        <mxCell id="Kz7M87pStebf-G6dgFen-10" value="id_тунир" style="ellipse;whiteSpace=wrap;html=1;" parent="1" vertex="1">
          <mxGeometry x="1467" y="355" width="120" height="40" as="geometry" />
        </mxCell>
        <mxCell id="Kz7M87pStebf-G6dgFen-11" style="edgeStyle=none;rounded=0;html=1;exitX=0;exitY=0.5;exitDx=0;exitDy=0;entryX=1;entryY=0.5;entryDx=0;entryDy=0;startArrow=none;startFill=0;endArrow=none;endFill=0;" parent="1" source="Kz7M87pStebf-G6dgFen-12" target="Kz7M87pStebf-G6dgFen-5" edge="1">
          <mxGeometry relative="1" as="geometry">
            <Array as="points">
              <mxPoint x="1437" y="445" />
              <mxPoint x="1437" y="300" />
            </Array>
          </mxGeometry>
        </mxCell>
        <mxCell id="Kz7M87pStebf-G6dgFen-12" value="Коментарий" style="ellipse;whiteSpace=wrap;html=1;" parent="1" vertex="1">
          <mxGeometry x="1467" y="425" width="120" height="40" as="geometry" />
        </mxCell>
        <mxCell id="Kz7M87pStebf-G6dgFen-13" value="Оценка" style="ellipse;whiteSpace=wrap;html=1;" parent="1" vertex="1">
          <mxGeometry x="1473.75" y="490" width="120" height="40" as="geometry" />
        </mxCell>
        <mxCell id="Kz7M87pStebf-G6dgFen-14" value="" style="endArrow=none;html=1;rounded=0;exitX=0;exitY=0.5;exitDx=0;exitDy=0;" parent="1" source="Kz7M87pStebf-G6dgFen-13" edge="1">
          <mxGeometry width="50" height="50" relative="1" as="geometry">
            <mxPoint x="1347" y="560" as="sourcePoint" />
            <mxPoint x="1437" y="300" as="targetPoint" />
            <Array as="points">
              <mxPoint x="1437" y="510" />
            </Array>
          </mxGeometry>
        </mxCell>
        <mxCell id="Kz7M87pStebf-G6dgFen-16" style="edgeStyle=none;rounded=0;html=1;exitX=1;exitY=0.5;exitDx=0;exitDy=0;startArrow=none;startFill=0;endArrow=none;endFill=0;" parent="1" source="Kz7M87pStebf-G6dgFen-17" target="Kz7M87pStebf-G6dgFen-21" edge="1">
          <mxGeometry relative="1" as="geometry" />
        </mxCell>
        <mxCell id="Kz7M87pStebf-G6dgFen-17" value="Заявка" style="rounded=0;whiteSpace=wrap;html=1;" parent="1" vertex="1">
          <mxGeometry x="399.5" y="560" width="120" height="60" as="geometry" />
        </mxCell>
        <mxCell id="Kz7M87pStebf-G6dgFen-21" value="id" style="ellipse;whiteSpace=wrap;html=1;" parent="1" vertex="1">
          <mxGeometry x="576.5" y="570" width="120" height="40" as="geometry" />
        </mxCell>
        <mxCell id="Kz7M87pStebf-G6dgFen-22" style="edgeStyle=none;rounded=0;html=1;exitX=0;exitY=0.5;exitDx=0;exitDy=0;startArrow=none;startFill=0;endArrow=none;endFill=0;" parent="1" source="Kz7M87pStebf-G6dgFen-23" edge="1">
          <mxGeometry relative="1" as="geometry">
            <mxPoint x="516.5" y="590" as="targetPoint" />
            <Array as="points">
              <mxPoint x="546.5" y="640" />
              <mxPoint x="546.5" y="590" />
            </Array>
          </mxGeometry>
        </mxCell>
        <mxCell id="Kz7M87pStebf-G6dgFen-23" value="id_тунир" style="ellipse;whiteSpace=wrap;html=1;" parent="1" vertex="1">
          <mxGeometry x="576.5" y="620" width="120" height="40" as="geometry" />
        </mxCell>
        <mxCell id="Kz7M87pStebf-G6dgFen-24" style="edgeStyle=none;rounded=0;html=1;exitX=0;exitY=0.5;exitDx=0;exitDy=0;entryX=1;entryY=0.5;entryDx=0;entryDy=0;startArrow=none;startFill=0;endArrow=none;endFill=0;" parent="1" edge="1">
          <mxGeometry relative="1" as="geometry">
            <Array as="points">
              <mxPoint x="546.5" y="700" />
              <mxPoint x="546.5" y="590" />
            </Array>
            <mxPoint x="576.5" y="700" as="sourcePoint" />
            <mxPoint x="519.5" y="590" as="targetPoint" />
          </mxGeometry>
        </mxCell>
        <mxCell id="Kz7M87pStebf-G6dgFen-25" value="id_команда" style="ellipse;whiteSpace=wrap;html=1;" parent="1" vertex="1">
          <mxGeometry x="576.5" y="680" width="120" height="40" as="geometry" />
        </mxCell>
        <mxCell id="Kz7M87pStebf-G6dgFen-26" value="id_пользователь" style="ellipse;whiteSpace=wrap;html=1;" parent="1" vertex="1">
          <mxGeometry x="576.5" y="730" width="120" height="40" as="geometry" />
        </mxCell>
        <mxCell id="Kz7M87pStebf-G6dgFen-27" value="" style="endArrow=none;html=1;rounded=0;exitX=0;exitY=0.5;exitDx=0;exitDy=0;" parent="1" source="Kz7M87pStebf-G6dgFen-26" edge="1">
          <mxGeometry width="50" height="50" relative="1" as="geometry">
            <mxPoint x="456.5" y="850" as="sourcePoint" />
            <mxPoint x="546.5" y="590" as="targetPoint" />
            <Array as="points">
              <mxPoint x="546.5" y="750" />
            </Array>
          </mxGeometry>
        </mxCell>
        <mxCell id="Kz7M87pStebf-G6dgFen-28" value="время создания" style="ellipse;whiteSpace=wrap;html=1;" parent="1" vertex="1">
          <mxGeometry x="576.5" y="780" width="120" height="40" as="geometry" />
        </mxCell>
        <mxCell id="Kz7M87pStebf-G6dgFen-29" value="" style="endArrow=none;html=1;rounded=0;entryX=0;entryY=0.5;entryDx=0;entryDy=0;" parent="1" target="Kz7M87pStebf-G6dgFen-28" edge="1">
          <mxGeometry width="50" height="50" relative="1" as="geometry">
            <mxPoint x="546.5" y="700" as="sourcePoint" />
            <mxPoint x="573.5" y="870" as="targetPoint" />
            <Array as="points">
              <mxPoint x="546.5" y="800" />
            </Array>
          </mxGeometry>
        </mxCell>
      </root>
    </mxGraphModel>
  </diagram>
  <diagram id="aMx6F42v57U8etBiUjTd" name="Use-Case">
    <mxGraphModel dx="1816" dy="538" grid="1" gridSize="10" guides="1" tooltips="1" connect="1" arrows="1" fold="1" page="1" pageScale="1" pageWidth="827" pageHeight="1169" math="0" shadow="0">
      <root>
        <mxCell id="0" />
        <mxCell id="1" parent="0" />
        <mxCell id="2" value="Гость" style="shape=umlActor;verticalLabelPosition=bottom;verticalAlign=top;html=1;outlineConnect=0;" parent="1" vertex="1">
          <mxGeometry x="74" y="430" width="30" height="60" as="geometry" />
        </mxCell>
        <mxCell id="9" value="Просмотр результ.&lt;br&gt;турнирной таблицы" style="ellipse;whiteSpace=wrap;html=1;" parent="1" vertex="1">
          <mxGeometry x="214" y="260" width="160" height="50" as="geometry" />
        </mxCell>
        <mxCell id="10" value="Вход без авторизации" style="ellipse;whiteSpace=wrap;html=1;" parent="1" vertex="1">
          <mxGeometry x="9" y="340" width="160" height="50" as="geometry" />
        </mxCell>
        <mxCell id="11" value="Поиск футболиста по заданным параметрам" style="ellipse;whiteSpace=wrap;html=1;" parent="1" vertex="1">
          <mxGeometry x="214" y="330" width="160" height="50" as="geometry" />
        </mxCell>
        <mxCell id="sPxRwYfRaEwwGG1qHi4M-24" value="Судья" style="shape=umlActor;verticalLabelPosition=bottom;verticalAlign=top;html=1;outlineConnect=0;" parent="1" vertex="1">
          <mxGeometry x="521.5" y="360" width="30" height="60" as="geometry" />
        </mxCell>
        <mxCell id="sPxRwYfRaEwwGG1qHi4M-25" value="Просмотр информации о турнирах" style="ellipse;whiteSpace=wrap;html=1;" parent="1" vertex="1">
          <mxGeometry x="214" y="690" width="160" height="50" as="geometry" />
        </mxCell>
        <mxCell id="sPxRwYfRaEwwGG1qHi4M-26" value="Выход из аккаунта" style="ellipse;whiteSpace=wrap;html=1;" parent="1" vertex="1">
          <mxGeometry x="658.5" y="390" width="160" height="50" as="geometry" />
        </mxCell>
        <mxCell id="sPxRwYfRaEwwGG1qHi4M-27" value="Просмотр информации о стране, в которой проводится тунир" style="ellipse;whiteSpace=wrap;html=1;" parent="1" vertex="1">
          <mxGeometry x="211.5" y="610" width="165" height="60" as="geometry" />
        </mxCell>
        <mxCell id="sPxRwYfRaEwwGG1qHi4M-28" value="Просмотр информации о стадионе" style="ellipse;whiteSpace=wrap;html=1;" parent="1" vertex="1">
          <mxGeometry x="214" y="550" width="160" height="50" as="geometry" />
        </mxCell>
        <mxCell id="sPxRwYfRaEwwGG1qHi4M-29" value="Соз./удал. турнира" style="ellipse;whiteSpace=wrap;html=1;" parent="1" vertex="1">
          <mxGeometry x="658.5" y="720" width="160" height="50" as="geometry" />
        </mxCell>
        <mxCell id="sPxRwYfRaEwwGG1qHi4M-30" value="Соз/редак/удал команды" style="ellipse;whiteSpace=wrap;html=1;" parent="1" vertex="1">
          <mxGeometry x="658.5" y="585" width="160" height="50" as="geometry" />
        </mxCell>
        <mxCell id="sPxRwYfRaEwwGG1qHi4M-31" value="Создание расписания&lt;br&gt;тунира" style="ellipse;whiteSpace=wrap;html=1;" parent="1" vertex="1">
          <mxGeometry x="658.5" y="450" width="160" height="40" as="geometry" />
        </mxCell>
        <mxCell id="xHykTuojy1R_wexFuuKs-26" value="Администратор" style="shape=umlActor;verticalLabelPosition=bottom;verticalAlign=top;html=1;outlineConnect=0;" parent="1" vertex="1">
          <mxGeometry x="521.5" y="490" width="30" height="60" as="geometry" />
        </mxCell>
        <mxCell id="xHykTuojy1R_wexFuuKs-35" value="Ред/удал профилей &lt;br&gt;судей/администраторов" style="ellipse;whiteSpace=wrap;html=1;" parent="1" vertex="1">
          <mxGeometry x="454" y="680" width="165" height="50" as="geometry" />
        </mxCell>
        <mxCell id="8oivlbm7wHxa7IUNmjgf-17" value="Авторизация" style="ellipse;whiteSpace=wrap;html=1;" parent="1" vertex="1">
          <mxGeometry x="651.5" y="250" width="160" height="50" as="geometry" />
        </mxCell>
        <mxCell id="8oivlbm7wHxa7IUNmjgf-21" value="Вход с авторизацией" style="ellipse;whiteSpace=wrap;html=1;" parent="1" vertex="1">
          <mxGeometry x="658.5" y="320" width="160" height="50" as="geometry" />
        </mxCell>
        <mxCell id="8oivlbm7wHxa7IUNmjgf-26" value="Поиск тренера по&amp;nbsp;&lt;br&gt;заданным параметрам&amp;nbsp;" style="ellipse;whiteSpace=wrap;html=1;" parent="1" vertex="1">
          <mxGeometry x="214" y="400" width="160" height="50" as="geometry" />
        </mxCell>
        <mxCell id="8oivlbm7wHxa7IUNmjgf-27" value="Поиск клуба по&amp;nbsp;&lt;br&gt;заданным параметрам&amp;nbsp;" style="ellipse;whiteSpace=wrap;html=1;" parent="1" vertex="1">
          <mxGeometry x="214" y="470" width="160" height="50" as="geometry" />
        </mxCell>
        <mxCell id="8oivlbm7wHxa7IUNmjgf-30" value="" style="endArrow=none;html=1;rounded=0;" parent="1" edge="1">
          <mxGeometry width="50" height="50" relative="1" as="geometry">
            <mxPoint x="511.5" y="580" as="sourcePoint" />
            <mxPoint x="511.5" y="360" as="targetPoint" />
            <Array as="points">
              <mxPoint x="471.5" y="580" />
              <mxPoint x="471.5" y="360" />
            </Array>
          </mxGeometry>
        </mxCell>
        <mxCell id="8oivlbm7wHxa7IUNmjgf-31" value="" style="endArrow=none;html=1;rounded=0;" parent="1" edge="1">
          <mxGeometry width="50" height="50" relative="1" as="geometry">
            <mxPoint x="559" y="580" as="sourcePoint" />
            <mxPoint x="559" y="360" as="targetPoint" />
            <Array as="points">
              <mxPoint x="599" y="580" />
              <mxPoint x="599" y="460" />
              <mxPoint x="599" y="360" />
            </Array>
          </mxGeometry>
        </mxCell>
        <mxCell id="8oivlbm7wHxa7IUNmjgf-32" value="" style="endArrow=classic;html=1;rounded=0;entryX=0.5;entryY=0;entryDx=0;entryDy=0;" parent="1" target="xHykTuojy1R_wexFuuKs-35" edge="1">
          <mxGeometry width="50" height="50" relative="1" as="geometry">
            <mxPoint x="536.5" y="580" as="sourcePoint" />
            <mxPoint x="421.5" y="590" as="targetPoint" />
          </mxGeometry>
        </mxCell>
        <mxCell id="8oivlbm7wHxa7IUNmjgf-33" value="" style="endArrow=none;html=1;rounded=0;" parent="1" edge="1">
          <mxGeometry width="50" height="50" relative="1" as="geometry">
            <mxPoint x="471" y="460" as="sourcePoint" />
            <mxPoint x="471" y="460" as="targetPoint" />
            <Array as="points">
              <mxPoint x="434" y="460" />
            </Array>
          </mxGeometry>
        </mxCell>
        <mxCell id="8oivlbm7wHxa7IUNmjgf-34" value="" style="endArrow=none;html=1;rounded=0;" parent="1" edge="1">
          <mxGeometry width="50" height="50" relative="1" as="geometry">
            <mxPoint x="599" y="470" as="sourcePoint" />
            <mxPoint x="651.5" y="470" as="targetPoint" />
          </mxGeometry>
        </mxCell>
        <mxCell id="8oivlbm7wHxa7IUNmjgf-36" value="" style="endArrow=classic;html=1;rounded=0;entryX=0.5;entryY=1;entryDx=0;entryDy=0;" parent="1" source="2" target="10" edge="1">
          <mxGeometry width="50" height="50" relative="1" as="geometry">
            <mxPoint x="244" y="550" as="sourcePoint" />
            <mxPoint x="294" y="500" as="targetPoint" />
          </mxGeometry>
        </mxCell>
        <mxCell id="8oivlbm7wHxa7IUNmjgf-39" value="" style="endArrow=classic;html=1;rounded=0;entryX=1;entryY=0.5;entryDx=0;entryDy=0;" parent="1" target="9" edge="1">
          <mxGeometry width="50" height="50" relative="1" as="geometry">
            <mxPoint x="434" y="460" as="sourcePoint" />
            <mxPoint x="524" y="150" as="targetPoint" />
          </mxGeometry>
        </mxCell>
        <mxCell id="8oivlbm7wHxa7IUNmjgf-40" value="" style="endArrow=classic;html=1;rounded=0;entryX=1;entryY=0.5;entryDx=0;entryDy=0;" parent="1" target="11" edge="1">
          <mxGeometry width="50" height="50" relative="1" as="geometry">
            <mxPoint x="434" y="460" as="sourcePoint" />
            <mxPoint x="534" y="160" as="targetPoint" />
          </mxGeometry>
        </mxCell>
        <mxCell id="8oivlbm7wHxa7IUNmjgf-41" value="" style="endArrow=classic;html=1;rounded=0;entryX=1;entryY=0.5;entryDx=0;entryDy=0;" parent="1" target="8oivlbm7wHxa7IUNmjgf-26" edge="1">
          <mxGeometry width="50" height="50" relative="1" as="geometry">
            <mxPoint x="434" y="460" as="sourcePoint" />
            <mxPoint x="544" y="170" as="targetPoint" />
          </mxGeometry>
        </mxCell>
        <mxCell id="8oivlbm7wHxa7IUNmjgf-42" value="" style="endArrow=classic;html=1;rounded=0;entryX=1;entryY=0.5;entryDx=0;entryDy=0;" parent="1" edge="1">
          <mxGeometry width="50" height="50" relative="1" as="geometry">
            <mxPoint x="433" y="460" as="sourcePoint" />
            <mxPoint x="372.9999999999998" y="495" as="targetPoint" />
          </mxGeometry>
        </mxCell>
        <mxCell id="8oivlbm7wHxa7IUNmjgf-43" value="" style="endArrow=classic;html=1;rounded=0;entryX=1;entryY=0.5;entryDx=0;entryDy=0;" parent="1" target="sPxRwYfRaEwwGG1qHi4M-28" edge="1">
          <mxGeometry width="50" height="50" relative="1" as="geometry">
            <mxPoint x="434" y="460" as="sourcePoint" />
            <mxPoint x="564" y="190" as="targetPoint" />
          </mxGeometry>
        </mxCell>
        <mxCell id="8oivlbm7wHxa7IUNmjgf-44" value="" style="endArrow=classic;html=1;rounded=0;entryX=1;entryY=0.5;entryDx=0;entryDy=0;" parent="1" target="sPxRwYfRaEwwGG1qHi4M-27" edge="1">
          <mxGeometry width="50" height="50" relative="1" as="geometry">
            <mxPoint x="434" y="460" as="sourcePoint" />
            <mxPoint x="574" y="200" as="targetPoint" />
          </mxGeometry>
        </mxCell>
        <mxCell id="8oivlbm7wHxa7IUNmjgf-50" value="" style="endArrow=classic;html=1;rounded=0;entryX=1;entryY=0.5;entryDx=0;entryDy=0;" parent="1" target="sPxRwYfRaEwwGG1qHi4M-25" edge="1">
          <mxGeometry width="50" height="50" relative="1" as="geometry">
            <mxPoint x="434" y="460" as="sourcePoint" />
            <mxPoint x="634" y="260" as="targetPoint" />
          </mxGeometry>
        </mxCell>
        <mxCell id="8oivlbm7wHxa7IUNmjgf-52" value="" style="endArrow=classic;html=1;rounded=0;entryX=0;entryY=0.5;entryDx=0;entryDy=0;" parent="1" target="11" edge="1">
          <mxGeometry width="50" height="50" relative="1" as="geometry">
            <mxPoint x="164" y="460" as="sourcePoint" />
            <mxPoint x="644" y="270" as="targetPoint" />
          </mxGeometry>
        </mxCell>
        <mxCell id="8oivlbm7wHxa7IUNmjgf-53" value="" style="endArrow=classic;html=1;rounded=0;entryX=0;entryY=0.5;entryDx=0;entryDy=0;" parent="1" target="8oivlbm7wHxa7IUNmjgf-26" edge="1">
          <mxGeometry width="50" height="50" relative="1" as="geometry">
            <mxPoint x="164" y="460" as="sourcePoint" />
            <mxPoint x="654" y="280" as="targetPoint" />
          </mxGeometry>
        </mxCell>
        <mxCell id="8oivlbm7wHxa7IUNmjgf-54" value="" style="endArrow=classic;html=1;rounded=0;entryX=0;entryY=0.5;entryDx=0;entryDy=0;" parent="1" target="sPxRwYfRaEwwGG1qHi4M-28" edge="1">
          <mxGeometry width="50" height="50" relative="1" as="geometry">
            <mxPoint x="164" y="460" as="sourcePoint" />
            <mxPoint x="664" y="290" as="targetPoint" />
          </mxGeometry>
        </mxCell>
        <mxCell id="8oivlbm7wHxa7IUNmjgf-55" value="" style="endArrow=classic;html=1;rounded=0;entryX=0;entryY=0.5;entryDx=0;entryDy=0;" parent="1" target="sPxRwYfRaEwwGG1qHi4M-27" edge="1">
          <mxGeometry width="50" height="50" relative="1" as="geometry">
            <mxPoint x="164" y="460" as="sourcePoint" />
            <mxPoint x="674" y="300" as="targetPoint" />
          </mxGeometry>
        </mxCell>
        <mxCell id="8oivlbm7wHxa7IUNmjgf-56" value="" style="endArrow=classic;html=1;rounded=0;entryX=0;entryY=0.5;entryDx=0;entryDy=0;" parent="1" target="sPxRwYfRaEwwGG1qHi4M-25" edge="1">
          <mxGeometry width="50" height="50" relative="1" as="geometry">
            <mxPoint x="164" y="460" as="sourcePoint" />
            <mxPoint x="684" y="310" as="targetPoint" />
          </mxGeometry>
        </mxCell>
        <mxCell id="8oivlbm7wHxa7IUNmjgf-57" value="" style="endArrow=classic;html=1;rounded=0;entryX=0;entryY=0.5;entryDx=0;entryDy=0;" parent="1" target="8oivlbm7wHxa7IUNmjgf-27" edge="1">
          <mxGeometry width="50" height="50" relative="1" as="geometry">
            <mxPoint x="164" y="460" as="sourcePoint" />
            <mxPoint x="694" y="320" as="targetPoint" />
          </mxGeometry>
        </mxCell>
        <mxCell id="8oivlbm7wHxa7IUNmjgf-58" value="" style="endArrow=none;html=1;rounded=0;" parent="1" source="2" edge="1">
          <mxGeometry width="50" height="50" relative="1" as="geometry">
            <mxPoint x="384" y="500" as="sourcePoint" />
            <mxPoint x="164" y="460" as="targetPoint" />
          </mxGeometry>
        </mxCell>
        <mxCell id="8oivlbm7wHxa7IUNmjgf-59" value="" style="endArrow=classic;html=1;rounded=0;entryX=0;entryY=0.5;entryDx=0;entryDy=0;" parent="1" target="9" edge="1">
          <mxGeometry width="50" height="50" relative="1" as="geometry">
            <mxPoint x="164" y="460" as="sourcePoint" />
            <mxPoint x="704" y="330" as="targetPoint" />
          </mxGeometry>
        </mxCell>
        <mxCell id="8oivlbm7wHxa7IUNmjgf-61" value="" style="endArrow=classic;html=1;rounded=0;entryX=0;entryY=0.5;entryDx=0;entryDy=0;" parent="1" target="8oivlbm7wHxa7IUNmjgf-17" edge="1">
          <mxGeometry width="50" height="50" relative="1" as="geometry">
            <mxPoint x="611.5" y="470" as="sourcePoint" />
            <mxPoint x="421.5" y="190" as="targetPoint" />
          </mxGeometry>
        </mxCell>
        <mxCell id="8oivlbm7wHxa7IUNmjgf-62" value="" style="endArrow=classic;html=1;rounded=0;entryX=0;entryY=0.5;entryDx=0;entryDy=0;" parent="1" target="8oivlbm7wHxa7IUNmjgf-21" edge="1">
          <mxGeometry width="50" height="50" relative="1" as="geometry">
            <mxPoint x="611.5" y="470" as="sourcePoint" />
            <mxPoint x="501.5" y="140" as="targetPoint" />
          </mxGeometry>
        </mxCell>
        <mxCell id="8oivlbm7wHxa7IUNmjgf-63" value="" style="endArrow=classic;html=1;rounded=0;entryX=0;entryY=0.5;entryDx=0;entryDy=0;" parent="1" target="sPxRwYfRaEwwGG1qHi4M-26" edge="1">
          <mxGeometry width="50" height="50" relative="1" as="geometry">
            <mxPoint x="611.5" y="470" as="sourcePoint" />
            <mxPoint x="571.5" y="170" as="targetPoint" />
          </mxGeometry>
        </mxCell>
        <mxCell id="8oivlbm7wHxa7IUNmjgf-64" value="" style="endArrow=classic;html=1;rounded=0;entryX=0;entryY=0.5;entryDx=0;entryDy=0;" parent="1" target="sPxRwYfRaEwwGG1qHi4M-31" edge="1">
          <mxGeometry width="50" height="50" relative="1" as="geometry">
            <mxPoint x="611.5" y="470" as="sourcePoint" />
            <mxPoint x="561.5" y="380" as="targetPoint" />
          </mxGeometry>
        </mxCell>
        <mxCell id="8oivlbm7wHxa7IUNmjgf-65" value="" style="endArrow=classic;html=1;rounded=0;entryX=0;entryY=0.5;entryDx=0;entryDy=0;" parent="1" target="sPxRwYfRaEwwGG1qHi4M-30" edge="1">
          <mxGeometry width="50" height="50" relative="1" as="geometry">
            <mxPoint x="611.5" y="470" as="sourcePoint" />
            <mxPoint x="571.5" y="390" as="targetPoint" />
          </mxGeometry>
        </mxCell>
        <mxCell id="8oivlbm7wHxa7IUNmjgf-66" value="" style="endArrow=classic;html=1;rounded=0;entryX=0;entryY=0.5;entryDx=0;entryDy=0;" parent="1" target="sPxRwYfRaEwwGG1qHi4M-29" edge="1">
          <mxGeometry width="50" height="50" relative="1" as="geometry">
            <mxPoint x="611.5" y="470" as="sourcePoint" />
            <mxPoint x="581.5" y="400" as="targetPoint" />
          </mxGeometry>
        </mxCell>
        <mxCell id="eSrBS9QMJhNpbvIOdaj2-12" value="Футболист" style="shape=umlActor;verticalLabelPosition=bottom;verticalAlign=top;html=1;outlineConnect=0;" parent="1" vertex="1">
          <mxGeometry x="-715" y="500" width="30" height="60" as="geometry" />
        </mxCell>
        <mxCell id="eSrBS9QMJhNpbvIOdaj2-53" style="edgeStyle=orthogonalEdgeStyle;rounded=0;orthogonalLoop=1;jettySize=auto;html=1;entryX=0;entryY=0.5;entryDx=0;entryDy=0;" parent="1" source="eSrBS9QMJhNpbvIOdaj2-14" target="eSrBS9QMJhNpbvIOdaj2-50" edge="1">
          <mxGeometry relative="1" as="geometry" />
        </mxCell>
        <mxCell id="eSrBS9QMJhNpbvIOdaj2-14" value="Тренер" style="shape=umlActor;verticalLabelPosition=bottom;verticalAlign=top;html=1;outlineConnect=0;" parent="1" vertex="1">
          <mxGeometry x="-295" y="495" width="30" height="60" as="geometry" />
        </mxCell>
        <mxCell id="eSrBS9QMJhNpbvIOdaj2-17" value="Просмотр результ.&lt;br&gt;турнирной таблицы" style="ellipse;whiteSpace=wrap;html=1;" parent="1" vertex="1">
          <mxGeometry x="-575" y="620" width="160" height="50" as="geometry" />
        </mxCell>
        <mxCell id="eSrBS9QMJhNpbvIOdaj2-18" value="Подача запрос на вступление в команду&amp;nbsp;" style="ellipse;whiteSpace=wrap;html=1;" parent="1" vertex="1">
          <mxGeometry x="-780" y="410" width="160" height="50" as="geometry" />
        </mxCell>
        <mxCell id="eSrBS9QMJhNpbvIOdaj2-20" value="Изменить свои данные" style="ellipse;whiteSpace=wrap;html=1;" parent="1" vertex="1">
          <mxGeometry x="-582" y="555" width="160" height="50" as="geometry" />
        </mxCell>
        <mxCell id="eSrBS9QMJhNpbvIOdaj2-21" value="Просмотр информации о турнирах" style="ellipse;whiteSpace=wrap;html=1;" parent="1" vertex="1">
          <mxGeometry x="-575" y="760" width="160" height="50" as="geometry" />
        </mxCell>
        <mxCell id="eSrBS9QMJhNpbvIOdaj2-25" value="Поиск клуба по&amp;nbsp;&lt;br&gt;заданным параметрам&amp;nbsp;" style="ellipse;whiteSpace=wrap;html=1;" parent="1" vertex="1">
          <mxGeometry x="-573" y="690" width="160" height="50" as="geometry" />
        </mxCell>
        <mxCell id="eSrBS9QMJhNpbvIOdaj2-26" value="" style="endArrow=classic;html=1;rounded=0;entryX=0.5;entryY=1;entryDx=0;entryDy=0;" parent="1" target="eSrBS9QMJhNpbvIOdaj2-18" edge="1">
          <mxGeometry width="50" height="50" relative="1" as="geometry">
            <mxPoint x="-700" y="500" as="sourcePoint" />
            <mxPoint x="-495" y="570" as="targetPoint" />
          </mxGeometry>
        </mxCell>
        <mxCell id="eSrBS9QMJhNpbvIOdaj2-27" value="" style="endArrow=classic;html=1;rounded=0;entryX=1;entryY=0.5;entryDx=0;entryDy=0;" parent="1" target="eSrBS9QMJhNpbvIOdaj2-20" edge="1">
          <mxGeometry width="50" height="50" relative="1" as="geometry">
            <mxPoint x="-355" y="530" as="sourcePoint" />
            <mxPoint x="-435" y="490" as="targetPoint" />
          </mxGeometry>
        </mxCell>
        <mxCell id="eSrBS9QMJhNpbvIOdaj2-28" value="" style="endArrow=classic;html=1;rounded=0;entryX=1;entryY=0.5;entryDx=0;entryDy=0;" parent="1" target="eSrBS9QMJhNpbvIOdaj2-17" edge="1">
          <mxGeometry width="50" height="50" relative="1" as="geometry">
            <mxPoint x="-355" y="530" as="sourcePoint" />
            <mxPoint x="-265" y="220" as="targetPoint" />
          </mxGeometry>
        </mxCell>
        <mxCell id="eSrBS9QMJhNpbvIOdaj2-29" value="" style="endArrow=classic;html=1;rounded=0;entryX=1;entryY=0.5;entryDx=0;entryDy=0;" parent="1" target="eSrBS9QMJhNpbvIOdaj2-46" edge="1">
          <mxGeometry width="50" height="50" relative="1" as="geometry">
            <mxPoint x="-355" y="530" as="sourcePoint" />
            <mxPoint x="-415" y="425" as="targetPoint" />
          </mxGeometry>
        </mxCell>
        <mxCell id="eSrBS9QMJhNpbvIOdaj2-30" value="" style="endArrow=classic;html=1;rounded=0;entryX=1;entryY=0.5;entryDx=0;entryDy=0;" parent="1" target="eSrBS9QMJhNpbvIOdaj2-44" edge="1">
          <mxGeometry width="50" height="50" relative="1" as="geometry">
            <mxPoint x="-355" y="530" as="sourcePoint" />
            <mxPoint x="-415" y="495" as="targetPoint" />
          </mxGeometry>
        </mxCell>
        <mxCell id="eSrBS9QMJhNpbvIOdaj2-31" value="" style="endArrow=classic;html=1;rounded=0;entryX=1;entryY=0.5;entryDx=0;entryDy=0;" parent="1" target="eSrBS9QMJhNpbvIOdaj2-45" edge="1">
          <mxGeometry width="50" height="50" relative="1" as="geometry">
            <mxPoint x="-356" y="530" as="sourcePoint" />
            <mxPoint x="-416.0000000000002" y="565" as="targetPoint" />
          </mxGeometry>
        </mxCell>
        <mxCell id="eSrBS9QMJhNpbvIOdaj2-32" value="" style="endArrow=classic;html=1;rounded=0;entryX=1;entryY=0.5;entryDx=0;entryDy=0;" parent="1" edge="1">
          <mxGeometry width="50" height="50" relative="1" as="geometry">
            <mxPoint x="-355" y="530" as="sourcePoint" />
            <mxPoint x="-415" y="645" as="targetPoint" />
          </mxGeometry>
        </mxCell>
        <mxCell id="eSrBS9QMJhNpbvIOdaj2-33" value="" style="endArrow=classic;html=1;rounded=0;entryX=1;entryY=0.5;entryDx=0;entryDy=0;" parent="1" target="eSrBS9QMJhNpbvIOdaj2-25" edge="1">
          <mxGeometry width="50" height="50" relative="1" as="geometry">
            <mxPoint x="-355" y="530" as="sourcePoint" />
            <mxPoint x="-412.5000000000002" y="710" as="targetPoint" />
          </mxGeometry>
        </mxCell>
        <mxCell id="eSrBS9QMJhNpbvIOdaj2-34" value="" style="endArrow=classic;html=1;rounded=0;entryX=1;entryY=0.5;entryDx=0;entryDy=0;" parent="1" target="eSrBS9QMJhNpbvIOdaj2-21" edge="1">
          <mxGeometry width="50" height="50" relative="1" as="geometry">
            <mxPoint x="-355" y="530" as="sourcePoint" />
            <mxPoint x="-155" y="330" as="targetPoint" />
          </mxGeometry>
        </mxCell>
        <mxCell id="eSrBS9QMJhNpbvIOdaj2-35" value="" style="endArrow=classic;html=1;rounded=0;entryX=0;entryY=0.5;entryDx=0;entryDy=0;" parent="1" target="eSrBS9QMJhNpbvIOdaj2-46" edge="1">
          <mxGeometry width="50" height="50" relative="1" as="geometry">
            <mxPoint x="-625" y="530" as="sourcePoint" />
            <mxPoint x="-575" y="425" as="targetPoint" />
          </mxGeometry>
        </mxCell>
        <mxCell id="eSrBS9QMJhNpbvIOdaj2-36" value="" style="endArrow=classic;html=1;rounded=0;entryX=0;entryY=0.5;entryDx=0;entryDy=0;" parent="1" target="eSrBS9QMJhNpbvIOdaj2-44" edge="1">
          <mxGeometry width="50" height="50" relative="1" as="geometry">
            <mxPoint x="-625" y="530" as="sourcePoint" />
            <mxPoint x="-575" y="495" as="targetPoint" />
          </mxGeometry>
        </mxCell>
        <mxCell id="eSrBS9QMJhNpbvIOdaj2-37" value="" style="endArrow=classic;html=1;rounded=0;entryX=0;entryY=0.5;entryDx=0;entryDy=0;" parent="1" edge="1">
          <mxGeometry width="50" height="50" relative="1" as="geometry">
            <mxPoint x="-625" y="530" as="sourcePoint" />
            <mxPoint x="-575" y="645" as="targetPoint" />
          </mxGeometry>
        </mxCell>
        <mxCell id="eSrBS9QMJhNpbvIOdaj2-38" value="" style="endArrow=classic;html=1;rounded=0;entryX=0;entryY=0.5;entryDx=0;entryDy=0;" parent="1" target="eSrBS9QMJhNpbvIOdaj2-25" edge="1">
          <mxGeometry width="50" height="50" relative="1" as="geometry">
            <mxPoint x="-625" y="530" as="sourcePoint" />
            <mxPoint x="-577.4999999999998" y="710" as="targetPoint" />
          </mxGeometry>
        </mxCell>
        <mxCell id="eSrBS9QMJhNpbvIOdaj2-39" value="" style="endArrow=classic;html=1;rounded=0;entryX=0;entryY=0.5;entryDx=0;entryDy=0;" parent="1" target="eSrBS9QMJhNpbvIOdaj2-21" edge="1">
          <mxGeometry width="50" height="50" relative="1" as="geometry">
            <mxPoint x="-625" y="530" as="sourcePoint" />
            <mxPoint x="-105" y="380" as="targetPoint" />
          </mxGeometry>
        </mxCell>
        <mxCell id="eSrBS9QMJhNpbvIOdaj2-41" value="" style="endArrow=none;html=1;rounded=0;" parent="1" edge="1">
          <mxGeometry width="50" height="50" relative="1" as="geometry">
            <mxPoint x="-685" y="530" as="sourcePoint" />
            <mxPoint x="-625" y="530" as="targetPoint" />
          </mxGeometry>
        </mxCell>
        <mxCell id="eSrBS9QMJhNpbvIOdaj2-42" value="" style="endArrow=classic;html=1;rounded=0;entryX=0;entryY=0.5;entryDx=0;entryDy=0;" parent="1" target="eSrBS9QMJhNpbvIOdaj2-17" edge="1">
          <mxGeometry width="50" height="50" relative="1" as="geometry">
            <mxPoint x="-625" y="530" as="sourcePoint" />
            <mxPoint x="-85" y="400" as="targetPoint" />
          </mxGeometry>
        </mxCell>
        <mxCell id="eSrBS9QMJhNpbvIOdaj2-43" value="" style="endArrow=classic;html=1;rounded=0;entryX=0;entryY=0.5;entryDx=0;entryDy=0;" parent="1" target="eSrBS9QMJhNpbvIOdaj2-20" edge="1">
          <mxGeometry width="50" height="50" relative="1" as="geometry">
            <mxPoint x="-625" y="530" as="sourcePoint" />
            <mxPoint x="-75" y="410" as="targetPoint" />
          </mxGeometry>
        </mxCell>
        <mxCell id="eSrBS9QMJhNpbvIOdaj2-44" value="Выход из аккаунта" style="ellipse;whiteSpace=wrap;html=1;" parent="1" vertex="1">
          <mxGeometry x="-580" y="495" width="160" height="50" as="geometry" />
        </mxCell>
        <mxCell id="eSrBS9QMJhNpbvIOdaj2-45" value="Авторизация" style="ellipse;whiteSpace=wrap;html=1;" parent="1" vertex="1">
          <mxGeometry x="-582" y="365" width="160" height="50" as="geometry" />
        </mxCell>
        <mxCell id="eSrBS9QMJhNpbvIOdaj2-46" value="Вход с авторизацией" style="ellipse;whiteSpace=wrap;html=1;" parent="1" vertex="1">
          <mxGeometry x="-580" y="430" width="160" height="50" as="geometry" />
        </mxCell>
        <mxCell id="eSrBS9QMJhNpbvIOdaj2-49" value="" style="endArrow=classic;html=1;rounded=0;entryX=0;entryY=0.5;entryDx=0;entryDy=0;" parent="1" target="eSrBS9QMJhNpbvIOdaj2-45" edge="1">
          <mxGeometry width="50" height="50" relative="1" as="geometry">
            <mxPoint x="-624" y="530" as="sourcePoint" />
            <mxPoint x="-614" y="460" as="targetPoint" />
          </mxGeometry>
        </mxCell>
        <mxCell id="eSrBS9QMJhNpbvIOdaj2-50" value="Подача запрос на вступление в тунира" style="ellipse;whiteSpace=wrap;html=1;" parent="1" vertex="1">
          <mxGeometry x="-200" y="500" width="160" height="50" as="geometry" />
        </mxCell>
        <mxCell id="eSrBS9QMJhNpbvIOdaj2-51" value="Прием запроса от футболистов" style="ellipse;whiteSpace=wrap;html=1;" parent="1" vertex="1">
          <mxGeometry x="-360" y="400" width="160" height="50" as="geometry" />
        </mxCell>
        <mxCell id="eSrBS9QMJhNpbvIOdaj2-52" value="" style="endArrow=classic;html=1;rounded=0;exitX=0.5;exitY=0;exitDx=0;exitDy=0;exitPerimeter=0;entryX=0.5;entryY=1;entryDx=0;entryDy=0;" parent="1" source="eSrBS9QMJhNpbvIOdaj2-14" target="eSrBS9QMJhNpbvIOdaj2-51" edge="1">
          <mxGeometry width="50" height="50" relative="1" as="geometry">
            <mxPoint x="-395" y="570" as="sourcePoint" />
            <mxPoint x="-345" y="520" as="targetPoint" />
          </mxGeometry>
        </mxCell>
        <mxCell id="eSrBS9QMJhNpbvIOdaj2-55" value="" style="endArrow=none;html=1;rounded=0;" parent="1" edge="1">
          <mxGeometry width="50" height="50" relative="1" as="geometry">
            <mxPoint x="-356" y="529.5" as="sourcePoint" />
            <mxPoint x="-298" y="529.5" as="targetPoint" />
          </mxGeometry>
        </mxCell>
        <mxCell id="eSrBS9QMJhNpbvIOdaj2-58" value="Прием запроса от тренера" style="ellipse;whiteSpace=wrap;html=1;" parent="1" vertex="1">
          <mxGeometry x="651.5" y="510" width="160" height="50" as="geometry" />
        </mxCell>
        <mxCell id="eSrBS9QMJhNpbvIOdaj2-59" value="" style="endArrow=classic;html=1;rounded=0;entryX=0;entryY=0.5;entryDx=0;entryDy=0;" parent="1" target="eSrBS9QMJhNpbvIOdaj2-58" edge="1">
          <mxGeometry width="50" height="50" relative="1" as="geometry">
            <mxPoint x="612" y="470" as="sourcePoint" />
            <mxPoint x="649" y="535" as="targetPoint" />
          </mxGeometry>
        </mxCell>
        <mxCell id="eSrBS9QMJhNpbvIOdaj2-60" value="Ввод результата матча" style="ellipse;whiteSpace=wrap;html=1;" parent="1" vertex="1">
          <mxGeometry x="658.5" y="650" width="160" height="50" as="geometry" />
        </mxCell>
        <mxCell id="eSrBS9QMJhNpbvIOdaj2-61" value="" style="endArrow=classic;html=1;rounded=0;entryX=0;entryY=0.5;entryDx=0;entryDy=0;" parent="1" target="eSrBS9QMJhNpbvIOdaj2-60" edge="1">
          <mxGeometry width="50" height="50" relative="1" as="geometry">
            <mxPoint x="612" y="470" as="sourcePoint" />
            <mxPoint x="762" y="540" as="targetPoint" />
          </mxGeometry>
        </mxCell>
        <mxCell id="jFyf80A0lCd2y2ADqt7r-12" value="Оставить отзыв о тунире" style="ellipse;whiteSpace=wrap;html=1;" parent="1" vertex="1">
          <mxGeometry x="9" y="535" width="160" height="50" as="geometry" />
        </mxCell>
        <mxCell id="jFyf80A0lCd2y2ADqt7r-14" value="" style="endArrow=classic;html=1;rounded=0;entryX=0.5;entryY=0;entryDx=0;entryDy=0;" parent="1" target="jFyf80A0lCd2y2ADqt7r-12" edge="1">
          <mxGeometry width="50" height="50" relative="1" as="geometry">
            <mxPoint x="89" y="510" as="sourcePoint" />
            <mxPoint x="70" y="410" as="targetPoint" />
          </mxGeometry>
        </mxCell>
        <mxCell id="VFQLdJ8FpEiMqduoSYhK-12" value="Содание своей команды" style="ellipse;whiteSpace=wrap;html=1;" vertex="1" parent="1">
          <mxGeometry x="-200" y="435" width="160" height="50" as="geometry" />
        </mxCell>
        <mxCell id="VFQLdJ8FpEiMqduoSYhK-13" value="" style="endArrow=classic;html=1;rounded=0;entryX=0;entryY=0.5;entryDx=0;entryDy=0;" edge="1" parent="1" target="VFQLdJ8FpEiMqduoSYhK-12">
          <mxGeometry width="50" height="50" relative="1" as="geometry">
            <mxPoint x="-260" y="510" as="sourcePoint" />
            <mxPoint x="-70" y="480" as="targetPoint" />
          </mxGeometry>
        </mxCell>
      </root>
    </mxGraphModel>
  </diagram>
  <diagram id="sy-r8d1R38RQJTDHVyFc" name="ER-Модель в нотации Мартина">
    <mxGraphModel dx="1235" dy="665" grid="1" gridSize="10" guides="1" tooltips="1" connect="1" arrows="1" fold="1" page="1" pageScale="1" pageWidth="827" pageHeight="1169" math="0" shadow="0">
      <root>
        <mxCell id="0" />
        <mxCell id="1" parent="0" />
        <mxCell id="Wem_VNP8cEbjcYmOimlQ-28" value="User" style="shape=table;startSize=30;container=1;collapsible=1;childLayout=tableLayout;fixedRows=1;rowLines=0;fontStyle=1;align=center;resizeLast=1;html=1;" vertex="1" parent="1">
          <mxGeometry x="900" y="320" width="180" height="240" as="geometry" />
        </mxCell>
        <mxCell id="Wem_VNP8cEbjcYmOimlQ-29" value="" style="shape=tableRow;horizontal=0;startSize=0;swimlaneHead=0;swimlaneBody=0;fillColor=none;collapsible=0;dropTarget=0;points=[[0,0.5],[1,0.5]];portConstraint=eastwest;top=0;left=0;right=0;bottom=1;" vertex="1" parent="Wem_VNP8cEbjcYmOimlQ-28">
          <mxGeometry y="30" width="180" height="30" as="geometry" />
        </mxCell>
        <mxCell id="Wem_VNP8cEbjcYmOimlQ-30" value="PK" style="shape=partialRectangle;connectable=0;fillColor=none;top=0;left=0;bottom=0;right=0;fontStyle=1;overflow=hidden;whiteSpace=wrap;html=1;" vertex="1" parent="Wem_VNP8cEbjcYmOimlQ-29">
          <mxGeometry width="30" height="30" as="geometry">
            <mxRectangle width="30" height="30" as="alternateBounds" />
          </mxGeometry>
        </mxCell>
        <mxCell id="Wem_VNP8cEbjcYmOimlQ-31" value="Id: int" style="shape=partialRectangle;connectable=0;fillColor=none;top=0;left=0;bottom=0;right=0;align=left;spacingLeft=6;fontStyle=5;overflow=hidden;whiteSpace=wrap;html=1;" vertex="1" parent="Wem_VNP8cEbjcYmOimlQ-29">
          <mxGeometry x="30" width="150" height="30" as="geometry">
            <mxRectangle width="150" height="30" as="alternateBounds" />
          </mxGeometry>
        </mxCell>
        <mxCell id="Wem_VNP8cEbjcYmOimlQ-32" value="" style="shape=tableRow;horizontal=0;startSize=0;swimlaneHead=0;swimlaneBody=0;fillColor=none;collapsible=0;dropTarget=0;points=[[0,0.5],[1,0.5]];portConstraint=eastwest;top=0;left=0;right=0;bottom=0;" vertex="1" parent="Wem_VNP8cEbjcYmOimlQ-28">
          <mxGeometry y="60" width="180" height="30" as="geometry" />
        </mxCell>
        <mxCell id="Wem_VNP8cEbjcYmOimlQ-33" value="" style="shape=partialRectangle;connectable=0;fillColor=none;top=0;left=0;bottom=0;right=0;editable=1;overflow=hidden;whiteSpace=wrap;html=1;" vertex="1" parent="Wem_VNP8cEbjcYmOimlQ-32">
          <mxGeometry width="30" height="30" as="geometry">
            <mxRectangle width="30" height="30" as="alternateBounds" />
          </mxGeometry>
        </mxCell>
        <mxCell id="Wem_VNP8cEbjcYmOimlQ-34" value="Login: varchar(30)" style="shape=partialRectangle;connectable=0;fillColor=none;top=0;left=0;bottom=0;right=0;align=left;spacingLeft=6;overflow=hidden;whiteSpace=wrap;html=1;" vertex="1" parent="Wem_VNP8cEbjcYmOimlQ-32">
          <mxGeometry x="30" width="150" height="30" as="geometry">
            <mxRectangle width="150" height="30" as="alternateBounds" />
          </mxGeometry>
        </mxCell>
        <mxCell id="Wem_VNP8cEbjcYmOimlQ-35" value="" style="shape=tableRow;horizontal=0;startSize=0;swimlaneHead=0;swimlaneBody=0;fillColor=none;collapsible=0;dropTarget=0;points=[[0,0.5],[1,0.5]];portConstraint=eastwest;top=0;left=0;right=0;bottom=0;" vertex="1" parent="Wem_VNP8cEbjcYmOimlQ-28">
          <mxGeometry y="90" width="180" height="30" as="geometry" />
        </mxCell>
        <mxCell id="Wem_VNP8cEbjcYmOimlQ-36" value="" style="shape=partialRectangle;connectable=0;fillColor=none;top=0;left=0;bottom=0;right=0;editable=1;overflow=hidden;whiteSpace=wrap;html=1;" vertex="1" parent="Wem_VNP8cEbjcYmOimlQ-35">
          <mxGeometry width="30" height="30" as="geometry">
            <mxRectangle width="30" height="30" as="alternateBounds" />
          </mxGeometry>
        </mxCell>
        <mxCell id="Wem_VNP8cEbjcYmOimlQ-37" value="Password: varchar(30)" style="shape=partialRectangle;connectable=0;fillColor=none;top=0;left=0;bottom=0;right=0;align=left;spacingLeft=6;overflow=hidden;whiteSpace=wrap;html=1;" vertex="1" parent="Wem_VNP8cEbjcYmOimlQ-35">
          <mxGeometry x="30" width="150" height="30" as="geometry">
            <mxRectangle width="150" height="30" as="alternateBounds" />
          </mxGeometry>
        </mxCell>
        <mxCell id="Wem_VNP8cEbjcYmOimlQ-38" value="" style="shape=tableRow;horizontal=0;startSize=0;swimlaneHead=0;swimlaneBody=0;fillColor=none;collapsible=0;dropTarget=0;points=[[0,0.5],[1,0.5]];portConstraint=eastwest;top=0;left=0;right=0;bottom=0;" vertex="1" parent="Wem_VNP8cEbjcYmOimlQ-28">
          <mxGeometry y="120" width="180" height="30" as="geometry" />
        </mxCell>
        <mxCell id="Wem_VNP8cEbjcYmOimlQ-39" value="" style="shape=partialRectangle;connectable=0;fillColor=none;top=0;left=0;bottom=0;right=0;editable=1;overflow=hidden;whiteSpace=wrap;html=1;" vertex="1" parent="Wem_VNP8cEbjcYmOimlQ-38">
          <mxGeometry width="30" height="30" as="geometry">
            <mxRectangle width="30" height="30" as="alternateBounds" />
          </mxGeometry>
        </mxCell>
        <mxCell id="Wem_VNP8cEbjcYmOimlQ-40" value="Role: varchar(20)" style="shape=partialRectangle;connectable=0;fillColor=none;top=0;left=0;bottom=0;right=0;align=left;spacingLeft=6;overflow=hidden;whiteSpace=wrap;html=1;" vertex="1" parent="Wem_VNP8cEbjcYmOimlQ-38">
          <mxGeometry x="30" width="150" height="30" as="geometry">
            <mxRectangle width="150" height="30" as="alternateBounds" />
          </mxGeometry>
        </mxCell>
        <mxCell id="Wem_VNP8cEbjcYmOimlQ-41" value="" style="shape=tableRow;horizontal=0;startSize=0;swimlaneHead=0;swimlaneBody=0;fillColor=none;collapsible=0;dropTarget=0;points=[[0,0.5],[1,0.5]];portConstraint=eastwest;top=0;left=0;right=0;bottom=0;" vertex="1" parent="Wem_VNP8cEbjcYmOimlQ-28">
          <mxGeometry y="150" width="180" height="30" as="geometry" />
        </mxCell>
        <mxCell id="Wem_VNP8cEbjcYmOimlQ-42" value="" style="shape=partialRectangle;connectable=0;fillColor=none;top=0;left=0;bottom=0;right=0;editable=1;overflow=hidden;whiteSpace=wrap;html=1;" vertex="1" parent="Wem_VNP8cEbjcYmOimlQ-41">
          <mxGeometry width="30" height="30" as="geometry">
            <mxRectangle width="30" height="30" as="alternateBounds" />
          </mxGeometry>
        </mxCell>
        <mxCell id="Wem_VNP8cEbjcYmOimlQ-43" value="FirstName: varchar(30)" style="shape=partialRectangle;connectable=0;fillColor=none;top=0;left=0;bottom=0;right=0;align=left;spacingLeft=6;overflow=hidden;whiteSpace=wrap;html=1;" vertex="1" parent="Wem_VNP8cEbjcYmOimlQ-41">
          <mxGeometry x="30" width="150" height="30" as="geometry">
            <mxRectangle width="150" height="30" as="alternateBounds" />
          </mxGeometry>
        </mxCell>
        <mxCell id="Wem_VNP8cEbjcYmOimlQ-44" value="" style="shape=tableRow;horizontal=0;startSize=0;swimlaneHead=0;swimlaneBody=0;fillColor=none;collapsible=0;dropTarget=0;points=[[0,0.5],[1,0.5]];portConstraint=eastwest;top=0;left=0;right=0;bottom=0;" vertex="1" parent="Wem_VNP8cEbjcYmOimlQ-28">
          <mxGeometry y="180" width="180" height="30" as="geometry" />
        </mxCell>
        <mxCell id="Wem_VNP8cEbjcYmOimlQ-45" value="" style="shape=partialRectangle;connectable=0;fillColor=none;top=0;left=0;bottom=0;right=0;editable=1;overflow=hidden;whiteSpace=wrap;html=1;" vertex="1" parent="Wem_VNP8cEbjcYmOimlQ-44">
          <mxGeometry width="30" height="30" as="geometry">
            <mxRectangle width="30" height="30" as="alternateBounds" />
          </mxGeometry>
        </mxCell>
        <mxCell id="Wem_VNP8cEbjcYmOimlQ-46" value="LastName: varchar(30)" style="shape=partialRectangle;connectable=0;fillColor=none;top=0;left=0;bottom=0;right=0;align=left;spacingLeft=6;overflow=hidden;whiteSpace=wrap;html=1;" vertex="1" parent="Wem_VNP8cEbjcYmOimlQ-44">
          <mxGeometry x="30" width="150" height="30" as="geometry">
            <mxRectangle width="150" height="30" as="alternateBounds" />
          </mxGeometry>
        </mxCell>
        <mxCell id="Wem_VNP8cEbjcYmOimlQ-47" value="" style="shape=tableRow;horizontal=0;startSize=0;swimlaneHead=0;swimlaneBody=0;fillColor=none;collapsible=0;dropTarget=0;points=[[0,0.5],[1,0.5]];portConstraint=eastwest;top=0;left=0;right=0;bottom=0;" vertex="1" parent="Wem_VNP8cEbjcYmOimlQ-28">
          <mxGeometry y="210" width="180" height="30" as="geometry" />
        </mxCell>
        <mxCell id="Wem_VNP8cEbjcYmOimlQ-48" value="" style="shape=partialRectangle;connectable=0;fillColor=none;top=0;left=0;bottom=0;right=0;editable=1;overflow=hidden;whiteSpace=wrap;html=1;" vertex="1" parent="Wem_VNP8cEbjcYmOimlQ-47">
          <mxGeometry width="30" height="30" as="geometry">
            <mxRectangle width="30" height="30" as="alternateBounds" />
          </mxGeometry>
        </mxCell>
        <mxCell id="Wem_VNP8cEbjcYmOimlQ-49" value="Age: int" style="shape=partialRectangle;connectable=0;fillColor=none;top=0;left=0;bottom=0;right=0;align=left;spacingLeft=6;overflow=hidden;whiteSpace=wrap;html=1;" vertex="1" parent="Wem_VNP8cEbjcYmOimlQ-47">
          <mxGeometry x="30" width="150" height="30" as="geometry">
            <mxRectangle width="150" height="30" as="alternateBounds" />
          </mxGeometry>
        </mxCell>
        <mxCell id="Wem_VNP8cEbjcYmOimlQ-50" value="Stadium" style="shape=table;startSize=30;container=1;collapsible=1;childLayout=tableLayout;fixedRows=1;rowLines=0;fontStyle=1;align=center;resizeLast=1;html=1;" vertex="1" parent="1">
          <mxGeometry x="290" y="610" width="180" height="150" as="geometry" />
        </mxCell>
        <mxCell id="Wem_VNP8cEbjcYmOimlQ-51" value="" style="shape=tableRow;horizontal=0;startSize=0;swimlaneHead=0;swimlaneBody=0;fillColor=none;collapsible=0;dropTarget=0;points=[[0,0.5],[1,0.5]];portConstraint=eastwest;top=0;left=0;right=0;bottom=1;" vertex="1" parent="Wem_VNP8cEbjcYmOimlQ-50">
          <mxGeometry y="30" width="180" height="30" as="geometry" />
        </mxCell>
        <mxCell id="Wem_VNP8cEbjcYmOimlQ-52" value="PK" style="shape=partialRectangle;connectable=0;fillColor=none;top=0;left=0;bottom=0;right=0;fontStyle=1;overflow=hidden;whiteSpace=wrap;html=1;" vertex="1" parent="Wem_VNP8cEbjcYmOimlQ-51">
          <mxGeometry width="30" height="30" as="geometry">
            <mxRectangle width="30" height="30" as="alternateBounds" />
          </mxGeometry>
        </mxCell>
        <mxCell id="Wem_VNP8cEbjcYmOimlQ-53" value="Id: int" style="shape=partialRectangle;connectable=0;fillColor=none;top=0;left=0;bottom=0;right=0;align=left;spacingLeft=6;fontStyle=5;overflow=hidden;whiteSpace=wrap;html=1;" vertex="1" parent="Wem_VNP8cEbjcYmOimlQ-51">
          <mxGeometry x="30" width="150" height="30" as="geometry">
            <mxRectangle width="150" height="30" as="alternateBounds" />
          </mxGeometry>
        </mxCell>
        <mxCell id="Wem_VNP8cEbjcYmOimlQ-54" value="" style="shape=tableRow;horizontal=0;startSize=0;swimlaneHead=0;swimlaneBody=0;fillColor=none;collapsible=0;dropTarget=0;points=[[0,0.5],[1,0.5]];portConstraint=eastwest;top=0;left=0;right=0;bottom=0;" vertex="1" parent="Wem_VNP8cEbjcYmOimlQ-50">
          <mxGeometry y="60" width="180" height="30" as="geometry" />
        </mxCell>
        <mxCell id="Wem_VNP8cEbjcYmOimlQ-55" value="" style="shape=partialRectangle;connectable=0;fillColor=none;top=0;left=0;bottom=0;right=0;editable=1;overflow=hidden;whiteSpace=wrap;html=1;" vertex="1" parent="Wem_VNP8cEbjcYmOimlQ-54">
          <mxGeometry width="30" height="30" as="geometry">
            <mxRectangle width="30" height="30" as="alternateBounds" />
          </mxGeometry>
        </mxCell>
        <mxCell id="Wem_VNP8cEbjcYmOimlQ-56" value="Name: varchar(30)" style="shape=partialRectangle;connectable=0;fillColor=none;top=0;left=0;bottom=0;right=0;align=left;spacingLeft=6;overflow=hidden;whiteSpace=wrap;html=1;" vertex="1" parent="Wem_VNP8cEbjcYmOimlQ-54">
          <mxGeometry x="30" width="150" height="30" as="geometry">
            <mxRectangle width="150" height="30" as="alternateBounds" />
          </mxGeometry>
        </mxCell>
        <mxCell id="Wem_VNP8cEbjcYmOimlQ-57" value="" style="shape=tableRow;horizontal=0;startSize=0;swimlaneHead=0;swimlaneBody=0;fillColor=none;collapsible=0;dropTarget=0;points=[[0,0.5],[1,0.5]];portConstraint=eastwest;top=0;left=0;right=0;bottom=0;" vertex="1" parent="Wem_VNP8cEbjcYmOimlQ-50">
          <mxGeometry y="90" width="180" height="30" as="geometry" />
        </mxCell>
        <mxCell id="Wem_VNP8cEbjcYmOimlQ-58" value="" style="shape=partialRectangle;connectable=0;fillColor=none;top=0;left=0;bottom=0;right=0;editable=1;overflow=hidden;whiteSpace=wrap;html=1;" vertex="1" parent="Wem_VNP8cEbjcYmOimlQ-57">
          <mxGeometry width="30" height="30" as="geometry">
            <mxRectangle width="30" height="30" as="alternateBounds" />
          </mxGeometry>
        </mxCell>
        <mxCell id="Wem_VNP8cEbjcYmOimlQ-59" value="Capacity: int" style="shape=partialRectangle;connectable=0;fillColor=none;top=0;left=0;bottom=0;right=0;align=left;spacingLeft=6;overflow=hidden;whiteSpace=wrap;html=1;" vertex="1" parent="Wem_VNP8cEbjcYmOimlQ-57">
          <mxGeometry x="30" width="150" height="30" as="geometry">
            <mxRectangle width="150" height="30" as="alternateBounds" />
          </mxGeometry>
        </mxCell>
        <mxCell id="Wem_VNP8cEbjcYmOimlQ-60" value="" style="shape=tableRow;horizontal=0;startSize=0;swimlaneHead=0;swimlaneBody=0;fillColor=none;collapsible=0;dropTarget=0;points=[[0,0.5],[1,0.5]];portConstraint=eastwest;top=0;left=0;right=0;bottom=0;" vertex="1" parent="Wem_VNP8cEbjcYmOimlQ-50">
          <mxGeometry y="120" width="180" height="30" as="geometry" />
        </mxCell>
        <mxCell id="Wem_VNP8cEbjcYmOimlQ-61" value="FK" style="shape=partialRectangle;connectable=0;fillColor=none;top=0;left=0;bottom=0;right=0;editable=1;overflow=hidden;whiteSpace=wrap;html=1;" vertex="1" parent="Wem_VNP8cEbjcYmOimlQ-60">
          <mxGeometry width="30" height="30" as="geometry">
            <mxRectangle width="30" height="30" as="alternateBounds" />
          </mxGeometry>
        </mxCell>
        <mxCell id="Wem_VNP8cEbjcYmOimlQ-62" value="IdCountry: int" style="shape=partialRectangle;connectable=0;fillColor=none;top=0;left=0;bottom=0;right=0;align=left;spacingLeft=6;overflow=hidden;whiteSpace=wrap;html=1;" vertex="1" parent="Wem_VNP8cEbjcYmOimlQ-60">
          <mxGeometry x="30" width="150" height="30" as="geometry">
            <mxRectangle width="150" height="30" as="alternateBounds" />
          </mxGeometry>
        </mxCell>
        <mxCell id="Wem_VNP8cEbjcYmOimlQ-66" value="Match" style="shape=table;startSize=30;container=1;collapsible=1;childLayout=tableLayout;fixedRows=1;rowLines=0;fontStyle=1;align=center;resizeLast=1;html=1;" vertex="1" parent="1">
          <mxGeometry x="260" y="320" width="180" height="240" as="geometry" />
        </mxCell>
        <mxCell id="Wem_VNP8cEbjcYmOimlQ-67" value="" style="shape=tableRow;horizontal=0;startSize=0;swimlaneHead=0;swimlaneBody=0;fillColor=none;collapsible=0;dropTarget=0;points=[[0,0.5],[1,0.5]];portConstraint=eastwest;top=0;left=0;right=0;bottom=1;" vertex="1" parent="Wem_VNP8cEbjcYmOimlQ-66">
          <mxGeometry y="30" width="180" height="30" as="geometry" />
        </mxCell>
        <mxCell id="Wem_VNP8cEbjcYmOimlQ-68" value="PK" style="shape=partialRectangle;connectable=0;fillColor=none;top=0;left=0;bottom=0;right=0;fontStyle=1;overflow=hidden;whiteSpace=wrap;html=1;" vertex="1" parent="Wem_VNP8cEbjcYmOimlQ-67">
          <mxGeometry width="30" height="30" as="geometry">
            <mxRectangle width="30" height="30" as="alternateBounds" />
          </mxGeometry>
        </mxCell>
        <mxCell id="Wem_VNP8cEbjcYmOimlQ-69" value="Id: int" style="shape=partialRectangle;connectable=0;fillColor=none;top=0;left=0;bottom=0;right=0;align=left;spacingLeft=6;fontStyle=5;overflow=hidden;whiteSpace=wrap;html=1;" vertex="1" parent="Wem_VNP8cEbjcYmOimlQ-67">
          <mxGeometry x="30" width="150" height="30" as="geometry">
            <mxRectangle width="150" height="30" as="alternateBounds" />
          </mxGeometry>
        </mxCell>
        <mxCell id="Wem_VNP8cEbjcYmOimlQ-70" value="" style="shape=tableRow;horizontal=0;startSize=0;swimlaneHead=0;swimlaneBody=0;fillColor=none;collapsible=0;dropTarget=0;points=[[0,0.5],[1,0.5]];portConstraint=eastwest;top=0;left=0;right=0;bottom=0;" vertex="1" parent="Wem_VNP8cEbjcYmOimlQ-66">
          <mxGeometry y="60" width="180" height="30" as="geometry" />
        </mxCell>
        <mxCell id="Wem_VNP8cEbjcYmOimlQ-71" value="" style="shape=partialRectangle;connectable=0;fillColor=none;top=0;left=0;bottom=0;right=0;editable=1;overflow=hidden;whiteSpace=wrap;html=1;" vertex="1" parent="Wem_VNP8cEbjcYmOimlQ-70">
          <mxGeometry width="30" height="30" as="geometry">
            <mxRectangle width="30" height="30" as="alternateBounds" />
          </mxGeometry>
        </mxCell>
        <mxCell id="Wem_VNP8cEbjcYmOimlQ-72" value="GoalHomeTeam: int" style="shape=partialRectangle;connectable=0;fillColor=none;top=0;left=0;bottom=0;right=0;align=left;spacingLeft=6;overflow=hidden;whiteSpace=wrap;html=1;" vertex="1" parent="Wem_VNP8cEbjcYmOimlQ-70">
          <mxGeometry x="30" width="150" height="30" as="geometry">
            <mxRectangle width="150" height="30" as="alternateBounds" />
          </mxGeometry>
        </mxCell>
        <mxCell id="Wem_VNP8cEbjcYmOimlQ-73" value="" style="shape=tableRow;horizontal=0;startSize=0;swimlaneHead=0;swimlaneBody=0;fillColor=none;collapsible=0;dropTarget=0;points=[[0,0.5],[1,0.5]];portConstraint=eastwest;top=0;left=0;right=0;bottom=0;" vertex="1" parent="Wem_VNP8cEbjcYmOimlQ-66">
          <mxGeometry y="90" width="180" height="30" as="geometry" />
        </mxCell>
        <mxCell id="Wem_VNP8cEbjcYmOimlQ-74" value="" style="shape=partialRectangle;connectable=0;fillColor=none;top=0;left=0;bottom=0;right=0;editable=1;overflow=hidden;whiteSpace=wrap;html=1;" vertex="1" parent="Wem_VNP8cEbjcYmOimlQ-73">
          <mxGeometry width="30" height="30" as="geometry">
            <mxRectangle width="30" height="30" as="alternateBounds" />
          </mxGeometry>
        </mxCell>
        <mxCell id="Wem_VNP8cEbjcYmOimlQ-75" value="GoalGuessTeam: int" style="shape=partialRectangle;connectable=0;fillColor=none;top=0;left=0;bottom=0;right=0;align=left;spacingLeft=6;overflow=hidden;whiteSpace=wrap;html=1;" vertex="1" parent="Wem_VNP8cEbjcYmOimlQ-73">
          <mxGeometry x="30" width="150" height="30" as="geometry">
            <mxRectangle width="150" height="30" as="alternateBounds" />
          </mxGeometry>
        </mxCell>
        <mxCell id="Wem_VNP8cEbjcYmOimlQ-76" value="" style="shape=tableRow;horizontal=0;startSize=0;swimlaneHead=0;swimlaneBody=0;fillColor=none;collapsible=0;dropTarget=0;points=[[0,0.5],[1,0.5]];portConstraint=eastwest;top=0;left=0;right=0;bottom=0;" vertex="1" parent="Wem_VNP8cEbjcYmOimlQ-66">
          <mxGeometry y="120" width="180" height="30" as="geometry" />
        </mxCell>
        <mxCell id="Wem_VNP8cEbjcYmOimlQ-77" value="FK" style="shape=partialRectangle;connectable=0;fillColor=none;top=0;left=0;bottom=0;right=0;editable=1;overflow=hidden;whiteSpace=wrap;html=1;" vertex="1" parent="Wem_VNP8cEbjcYmOimlQ-76">
          <mxGeometry width="30" height="30" as="geometry">
            <mxRectangle width="30" height="30" as="alternateBounds" />
          </mxGeometry>
        </mxCell>
        <mxCell id="Wem_VNP8cEbjcYmOimlQ-78" value="IdLeague: int" style="shape=partialRectangle;connectable=0;fillColor=none;top=0;left=0;bottom=0;right=0;align=left;spacingLeft=6;overflow=hidden;whiteSpace=wrap;html=1;" vertex="1" parent="Wem_VNP8cEbjcYmOimlQ-76">
          <mxGeometry x="30" width="150" height="30" as="geometry">
            <mxRectangle width="150" height="30" as="alternateBounds" />
          </mxGeometry>
        </mxCell>
        <mxCell id="Wem_VNP8cEbjcYmOimlQ-79" value="" style="shape=tableRow;horizontal=0;startSize=0;swimlaneHead=0;swimlaneBody=0;fillColor=none;collapsible=0;dropTarget=0;points=[[0,0.5],[1,0.5]];portConstraint=eastwest;top=0;left=0;right=0;bottom=0;" vertex="1" parent="Wem_VNP8cEbjcYmOimlQ-66">
          <mxGeometry y="150" width="180" height="30" as="geometry" />
        </mxCell>
        <mxCell id="Wem_VNP8cEbjcYmOimlQ-80" value="FK" style="shape=partialRectangle;connectable=0;fillColor=none;top=0;left=0;bottom=0;right=0;editable=1;overflow=hidden;whiteSpace=wrap;html=1;" vertex="1" parent="Wem_VNP8cEbjcYmOimlQ-79">
          <mxGeometry width="30" height="30" as="geometry">
            <mxRectangle width="30" height="30" as="alternateBounds" />
          </mxGeometry>
        </mxCell>
        <mxCell id="Wem_VNP8cEbjcYmOimlQ-81" value="IdStadium: int" style="shape=partialRectangle;connectable=0;fillColor=none;top=0;left=0;bottom=0;right=0;align=left;spacingLeft=6;overflow=hidden;whiteSpace=wrap;html=1;" vertex="1" parent="Wem_VNP8cEbjcYmOimlQ-79">
          <mxGeometry x="30" width="150" height="30" as="geometry">
            <mxRectangle width="150" height="30" as="alternateBounds" />
          </mxGeometry>
        </mxCell>
        <mxCell id="Wem_VNP8cEbjcYmOimlQ-98" value="" style="shape=tableRow;horizontal=0;startSize=0;swimlaneHead=0;swimlaneBody=0;fillColor=none;collapsible=0;dropTarget=0;points=[[0,0.5],[1,0.5]];portConstraint=eastwest;top=0;left=0;right=0;bottom=0;" vertex="1" parent="Wem_VNP8cEbjcYmOimlQ-66">
          <mxGeometry y="180" width="180" height="30" as="geometry" />
        </mxCell>
        <mxCell id="Wem_VNP8cEbjcYmOimlQ-99" value="FK" style="shape=partialRectangle;connectable=0;fillColor=none;top=0;left=0;bottom=0;right=0;editable=1;overflow=hidden;whiteSpace=wrap;html=1;" vertex="1" parent="Wem_VNP8cEbjcYmOimlQ-98">
          <mxGeometry width="30" height="30" as="geometry">
            <mxRectangle width="30" height="30" as="alternateBounds" />
          </mxGeometry>
        </mxCell>
        <mxCell id="Wem_VNP8cEbjcYmOimlQ-100" value="IdHomeTeam: int" style="shape=partialRectangle;connectable=0;fillColor=none;top=0;left=0;bottom=0;right=0;align=left;spacingLeft=6;overflow=hidden;whiteSpace=wrap;html=1;" vertex="1" parent="Wem_VNP8cEbjcYmOimlQ-98">
          <mxGeometry x="30" width="150" height="30" as="geometry">
            <mxRectangle width="150" height="30" as="alternateBounds" />
          </mxGeometry>
        </mxCell>
        <mxCell id="Wem_VNP8cEbjcYmOimlQ-101" value="" style="shape=tableRow;horizontal=0;startSize=0;swimlaneHead=0;swimlaneBody=0;fillColor=none;collapsible=0;dropTarget=0;points=[[0,0.5],[1,0.5]];portConstraint=eastwest;top=0;left=0;right=0;bottom=0;" vertex="1" parent="Wem_VNP8cEbjcYmOimlQ-66">
          <mxGeometry y="210" width="180" height="30" as="geometry" />
        </mxCell>
        <mxCell id="Wem_VNP8cEbjcYmOimlQ-102" value="FK" style="shape=partialRectangle;connectable=0;fillColor=none;top=0;left=0;bottom=0;right=0;editable=1;overflow=hidden;whiteSpace=wrap;html=1;" vertex="1" parent="Wem_VNP8cEbjcYmOimlQ-101">
          <mxGeometry width="30" height="30" as="geometry">
            <mxRectangle width="30" height="30" as="alternateBounds" />
          </mxGeometry>
        </mxCell>
        <mxCell id="Wem_VNP8cEbjcYmOimlQ-103" value="IdGuessTeam: int" style="shape=partialRectangle;connectable=0;fillColor=none;top=0;left=0;bottom=0;right=0;align=left;spacingLeft=6;overflow=hidden;whiteSpace=wrap;html=1;" vertex="1" parent="Wem_VNP8cEbjcYmOimlQ-101">
          <mxGeometry x="30" width="150" height="30" as="geometry">
            <mxRectangle width="150" height="30" as="alternateBounds" />
          </mxGeometry>
        </mxCell>
        <mxCell id="Wem_VNP8cEbjcYmOimlQ-104" value="League" style="shape=table;startSize=30;container=1;collapsible=1;childLayout=tableLayout;fixedRows=1;rowLines=0;fontStyle=1;align=center;resizeLast=1;html=1;" vertex="1" parent="1">
          <mxGeometry x="590" y="540" width="180" height="180" as="geometry" />
        </mxCell>
        <mxCell id="Wem_VNP8cEbjcYmOimlQ-105" value="" style="shape=tableRow;horizontal=0;startSize=0;swimlaneHead=0;swimlaneBody=0;fillColor=none;collapsible=0;dropTarget=0;points=[[0,0.5],[1,0.5]];portConstraint=eastwest;top=0;left=0;right=0;bottom=1;" vertex="1" parent="Wem_VNP8cEbjcYmOimlQ-104">
          <mxGeometry y="30" width="180" height="30" as="geometry" />
        </mxCell>
        <mxCell id="Wem_VNP8cEbjcYmOimlQ-106" value="PK" style="shape=partialRectangle;connectable=0;fillColor=none;top=0;left=0;bottom=0;right=0;fontStyle=1;overflow=hidden;whiteSpace=wrap;html=1;" vertex="1" parent="Wem_VNP8cEbjcYmOimlQ-105">
          <mxGeometry width="30" height="30" as="geometry">
            <mxRectangle width="30" height="30" as="alternateBounds" />
          </mxGeometry>
        </mxCell>
        <mxCell id="Wem_VNP8cEbjcYmOimlQ-107" value="Id: int" style="shape=partialRectangle;connectable=0;fillColor=none;top=0;left=0;bottom=0;right=0;align=left;spacingLeft=6;fontStyle=5;overflow=hidden;whiteSpace=wrap;html=1;" vertex="1" parent="Wem_VNP8cEbjcYmOimlQ-105">
          <mxGeometry x="30" width="150" height="30" as="geometry">
            <mxRectangle width="150" height="30" as="alternateBounds" />
          </mxGeometry>
        </mxCell>
        <mxCell id="Wem_VNP8cEbjcYmOimlQ-108" value="" style="shape=tableRow;horizontal=0;startSize=0;swimlaneHead=0;swimlaneBody=0;fillColor=none;collapsible=0;dropTarget=0;points=[[0,0.5],[1,0.5]];portConstraint=eastwest;top=0;left=0;right=0;bottom=0;" vertex="1" parent="Wem_VNP8cEbjcYmOimlQ-104">
          <mxGeometry y="60" width="180" height="30" as="geometry" />
        </mxCell>
        <mxCell id="Wem_VNP8cEbjcYmOimlQ-109" value="" style="shape=partialRectangle;connectable=0;fillColor=none;top=0;left=0;bottom=0;right=0;editable=1;overflow=hidden;whiteSpace=wrap;html=1;" vertex="1" parent="Wem_VNP8cEbjcYmOimlQ-108">
          <mxGeometry width="30" height="30" as="geometry">
            <mxRectangle width="30" height="30" as="alternateBounds" />
          </mxGeometry>
        </mxCell>
        <mxCell id="Wem_VNP8cEbjcYmOimlQ-110" value="Name: varchar(30)" style="shape=partialRectangle;connectable=0;fillColor=none;top=0;left=0;bottom=0;right=0;align=left;spacingLeft=6;overflow=hidden;whiteSpace=wrap;html=1;" vertex="1" parent="Wem_VNP8cEbjcYmOimlQ-108">
          <mxGeometry x="30" width="150" height="30" as="geometry">
            <mxRectangle width="150" height="30" as="alternateBounds" />
          </mxGeometry>
        </mxCell>
        <mxCell id="Wem_VNP8cEbjcYmOimlQ-111" value="" style="shape=tableRow;horizontal=0;startSize=0;swimlaneHead=0;swimlaneBody=0;fillColor=none;collapsible=0;dropTarget=0;points=[[0,0.5],[1,0.5]];portConstraint=eastwest;top=0;left=0;right=0;bottom=0;" vertex="1" parent="Wem_VNP8cEbjcYmOimlQ-104">
          <mxGeometry y="90" width="180" height="30" as="geometry" />
        </mxCell>
        <mxCell id="Wem_VNP8cEbjcYmOimlQ-112" value="" style="shape=partialRectangle;connectable=0;fillColor=none;top=0;left=0;bottom=0;right=0;editable=1;overflow=hidden;whiteSpace=wrap;html=1;" vertex="1" parent="Wem_VNP8cEbjcYmOimlQ-111">
          <mxGeometry width="30" height="30" as="geometry">
            <mxRectangle width="30" height="30" as="alternateBounds" />
          </mxGeometry>
        </mxCell>
        <mxCell id="Wem_VNP8cEbjcYmOimlQ-113" value="Rating: double" style="shape=partialRectangle;connectable=0;fillColor=none;top=0;left=0;bottom=0;right=0;align=left;spacingLeft=6;overflow=hidden;whiteSpace=wrap;html=1;" vertex="1" parent="Wem_VNP8cEbjcYmOimlQ-111">
          <mxGeometry x="30" width="150" height="30" as="geometry">
            <mxRectangle width="150" height="30" as="alternateBounds" />
          </mxGeometry>
        </mxCell>
        <mxCell id="Wem_VNP8cEbjcYmOimlQ-114" value="" style="shape=tableRow;horizontal=0;startSize=0;swimlaneHead=0;swimlaneBody=0;fillColor=none;collapsible=0;dropTarget=0;points=[[0,0.5],[1,0.5]];portConstraint=eastwest;top=0;left=0;right=0;bottom=0;" vertex="1" parent="Wem_VNP8cEbjcYmOimlQ-104">
          <mxGeometry y="120" width="180" height="30" as="geometry" />
        </mxCell>
        <mxCell id="Wem_VNP8cEbjcYmOimlQ-115" value="FK" style="shape=partialRectangle;connectable=0;fillColor=none;top=0;left=0;bottom=0;right=0;editable=1;overflow=hidden;whiteSpace=wrap;html=1;" vertex="1" parent="Wem_VNP8cEbjcYmOimlQ-114">
          <mxGeometry width="30" height="30" as="geometry">
            <mxRectangle width="30" height="30" as="alternateBounds" />
          </mxGeometry>
        </mxCell>
        <mxCell id="Wem_VNP8cEbjcYmOimlQ-116" value="IdUser: int" style="shape=partialRectangle;connectable=0;fillColor=none;top=0;left=0;bottom=0;right=0;align=left;spacingLeft=6;overflow=hidden;whiteSpace=wrap;html=1;" vertex="1" parent="Wem_VNP8cEbjcYmOimlQ-114">
          <mxGeometry x="30" width="150" height="30" as="geometry">
            <mxRectangle width="150" height="30" as="alternateBounds" />
          </mxGeometry>
        </mxCell>
        <mxCell id="Wem_VNP8cEbjcYmOimlQ-117" value="" style="shape=tableRow;horizontal=0;startSize=0;swimlaneHead=0;swimlaneBody=0;fillColor=none;collapsible=0;dropTarget=0;points=[[0,0.5],[1,0.5]];portConstraint=eastwest;top=0;left=0;right=0;bottom=0;" vertex="1" parent="Wem_VNP8cEbjcYmOimlQ-104">
          <mxGeometry y="150" width="180" height="30" as="geometry" />
        </mxCell>
        <mxCell id="Wem_VNP8cEbjcYmOimlQ-118" value="FK" style="shape=partialRectangle;connectable=0;fillColor=none;top=0;left=0;bottom=0;right=0;editable=1;overflow=hidden;whiteSpace=wrap;html=1;" vertex="1" parent="Wem_VNP8cEbjcYmOimlQ-117">
          <mxGeometry width="30" height="30" as="geometry">
            <mxRectangle width="30" height="30" as="alternateBounds" />
          </mxGeometry>
        </mxCell>
        <mxCell id="Wem_VNP8cEbjcYmOimlQ-119" value="IdCountry: int" style="shape=partialRectangle;connectable=0;fillColor=none;top=0;left=0;bottom=0;right=0;align=left;spacingLeft=6;overflow=hidden;whiteSpace=wrap;html=1;" vertex="1" parent="Wem_VNP8cEbjcYmOimlQ-117">
          <mxGeometry x="30" width="150" height="30" as="geometry">
            <mxRectangle width="150" height="30" as="alternateBounds" />
          </mxGeometry>
        </mxCell>
        <mxCell id="Wem_VNP8cEbjcYmOimlQ-120" value="Feedback" style="shape=table;startSize=30;container=1;collapsible=1;childLayout=tableLayout;fixedRows=1;rowLines=0;fontStyle=1;align=center;resizeLast=1;html=1;" vertex="1" parent="1">
          <mxGeometry x="900" y="800" width="180" height="180" as="geometry" />
        </mxCell>
        <mxCell id="Wem_VNP8cEbjcYmOimlQ-121" value="" style="shape=tableRow;horizontal=0;startSize=0;swimlaneHead=0;swimlaneBody=0;fillColor=none;collapsible=0;dropTarget=0;points=[[0,0.5],[1,0.5]];portConstraint=eastwest;top=0;left=0;right=0;bottom=1;" vertex="1" parent="Wem_VNP8cEbjcYmOimlQ-120">
          <mxGeometry y="30" width="180" height="30" as="geometry" />
        </mxCell>
        <mxCell id="Wem_VNP8cEbjcYmOimlQ-122" value="PK" style="shape=partialRectangle;connectable=0;fillColor=none;top=0;left=0;bottom=0;right=0;fontStyle=1;overflow=hidden;whiteSpace=wrap;html=1;" vertex="1" parent="Wem_VNP8cEbjcYmOimlQ-121">
          <mxGeometry width="30" height="30" as="geometry">
            <mxRectangle width="30" height="30" as="alternateBounds" />
          </mxGeometry>
        </mxCell>
        <mxCell id="Wem_VNP8cEbjcYmOimlQ-123" value="Id: int" style="shape=partialRectangle;connectable=0;fillColor=none;top=0;left=0;bottom=0;right=0;align=left;spacingLeft=6;fontStyle=5;overflow=hidden;whiteSpace=wrap;html=1;" vertex="1" parent="Wem_VNP8cEbjcYmOimlQ-121">
          <mxGeometry x="30" width="150" height="30" as="geometry">
            <mxRectangle width="150" height="30" as="alternateBounds" />
          </mxGeometry>
        </mxCell>
        <mxCell id="Wem_VNP8cEbjcYmOimlQ-124" value="" style="shape=tableRow;horizontal=0;startSize=0;swimlaneHead=0;swimlaneBody=0;fillColor=none;collapsible=0;dropTarget=0;points=[[0,0.5],[1,0.5]];portConstraint=eastwest;top=0;left=0;right=0;bottom=0;" vertex="1" parent="Wem_VNP8cEbjcYmOimlQ-120">
          <mxGeometry y="60" width="180" height="30" as="geometry" />
        </mxCell>
        <mxCell id="Wem_VNP8cEbjcYmOimlQ-125" value="" style="shape=partialRectangle;connectable=0;fillColor=none;top=0;left=0;bottom=0;right=0;editable=1;overflow=hidden;whiteSpace=wrap;html=1;" vertex="1" parent="Wem_VNP8cEbjcYmOimlQ-124">
          <mxGeometry width="30" height="30" as="geometry">
            <mxRectangle width="30" height="30" as="alternateBounds" />
          </mxGeometry>
        </mxCell>
        <mxCell id="Wem_VNP8cEbjcYmOimlQ-126" value="Comment: varchar(200)" style="shape=partialRectangle;connectable=0;fillColor=none;top=0;left=0;bottom=0;right=0;align=left;spacingLeft=6;overflow=hidden;whiteSpace=wrap;html=1;" vertex="1" parent="Wem_VNP8cEbjcYmOimlQ-124">
          <mxGeometry x="30" width="150" height="30" as="geometry">
            <mxRectangle width="150" height="30" as="alternateBounds" />
          </mxGeometry>
        </mxCell>
        <mxCell id="Wem_VNP8cEbjcYmOimlQ-127" value="" style="shape=tableRow;horizontal=0;startSize=0;swimlaneHead=0;swimlaneBody=0;fillColor=none;collapsible=0;dropTarget=0;points=[[0,0.5],[1,0.5]];portConstraint=eastwest;top=0;left=0;right=0;bottom=0;" vertex="1" parent="Wem_VNP8cEbjcYmOimlQ-120">
          <mxGeometry y="90" width="180" height="30" as="geometry" />
        </mxCell>
        <mxCell id="Wem_VNP8cEbjcYmOimlQ-128" value="" style="shape=partialRectangle;connectable=0;fillColor=none;top=0;left=0;bottom=0;right=0;editable=1;overflow=hidden;whiteSpace=wrap;html=1;" vertex="1" parent="Wem_VNP8cEbjcYmOimlQ-127">
          <mxGeometry width="30" height="30" as="geometry">
            <mxRectangle width="30" height="30" as="alternateBounds" />
          </mxGeometry>
        </mxCell>
        <mxCell id="Wem_VNP8cEbjcYmOimlQ-129" value="Grade:&amp;nbsp; int" style="shape=partialRectangle;connectable=0;fillColor=none;top=0;left=0;bottom=0;right=0;align=left;spacingLeft=6;overflow=hidden;whiteSpace=wrap;html=1;" vertex="1" parent="Wem_VNP8cEbjcYmOimlQ-127">
          <mxGeometry x="30" width="150" height="30" as="geometry">
            <mxRectangle width="150" height="30" as="alternateBounds" />
          </mxGeometry>
        </mxCell>
        <mxCell id="Wem_VNP8cEbjcYmOimlQ-130" value="" style="shape=tableRow;horizontal=0;startSize=0;swimlaneHead=0;swimlaneBody=0;fillColor=none;collapsible=0;dropTarget=0;points=[[0,0.5],[1,0.5]];portConstraint=eastwest;top=0;left=0;right=0;bottom=0;" vertex="1" parent="Wem_VNP8cEbjcYmOimlQ-120">
          <mxGeometry y="120" width="180" height="30" as="geometry" />
        </mxCell>
        <mxCell id="Wem_VNP8cEbjcYmOimlQ-131" value="FK" style="shape=partialRectangle;connectable=0;fillColor=none;top=0;left=0;bottom=0;right=0;editable=1;overflow=hidden;whiteSpace=wrap;html=1;" vertex="1" parent="Wem_VNP8cEbjcYmOimlQ-130">
          <mxGeometry width="30" height="30" as="geometry">
            <mxRectangle width="30" height="30" as="alternateBounds" />
          </mxGeometry>
        </mxCell>
        <mxCell id="Wem_VNP8cEbjcYmOimlQ-132" value="IdUser: int" style="shape=partialRectangle;connectable=0;fillColor=none;top=0;left=0;bottom=0;right=0;align=left;spacingLeft=6;overflow=hidden;whiteSpace=wrap;html=1;" vertex="1" parent="Wem_VNP8cEbjcYmOimlQ-130">
          <mxGeometry x="30" width="150" height="30" as="geometry">
            <mxRectangle width="150" height="30" as="alternateBounds" />
          </mxGeometry>
        </mxCell>
        <mxCell id="Wem_VNP8cEbjcYmOimlQ-133" value="" style="shape=tableRow;horizontal=0;startSize=0;swimlaneHead=0;swimlaneBody=0;fillColor=none;collapsible=0;dropTarget=0;points=[[0,0.5],[1,0.5]];portConstraint=eastwest;top=0;left=0;right=0;bottom=0;" vertex="1" parent="Wem_VNP8cEbjcYmOimlQ-120">
          <mxGeometry y="150" width="180" height="30" as="geometry" />
        </mxCell>
        <mxCell id="Wem_VNP8cEbjcYmOimlQ-134" value="FK" style="shape=partialRectangle;connectable=0;fillColor=none;top=0;left=0;bottom=0;right=0;editable=1;overflow=hidden;whiteSpace=wrap;html=1;" vertex="1" parent="Wem_VNP8cEbjcYmOimlQ-133">
          <mxGeometry width="30" height="30" as="geometry">
            <mxRectangle width="30" height="30" as="alternateBounds" />
          </mxGeometry>
        </mxCell>
        <mxCell id="Wem_VNP8cEbjcYmOimlQ-135" value="IdLeague: int" style="shape=partialRectangle;connectable=0;fillColor=none;top=0;left=0;bottom=0;right=0;align=left;spacingLeft=6;overflow=hidden;whiteSpace=wrap;html=1;" vertex="1" parent="Wem_VNP8cEbjcYmOimlQ-133">
          <mxGeometry x="30" width="150" height="30" as="geometry">
            <mxRectangle width="150" height="30" as="alternateBounds" />
          </mxGeometry>
        </mxCell>
        <mxCell id="Wem_VNP8cEbjcYmOimlQ-149" value="Country" style="shape=table;startSize=30;container=1;collapsible=1;childLayout=tableLayout;fixedRows=1;rowLines=0;fontStyle=1;align=center;resizeLast=1;html=1;" vertex="1" parent="1">
          <mxGeometry x="300" y="820" width="180" height="140" as="geometry" />
        </mxCell>
        <mxCell id="Wem_VNP8cEbjcYmOimlQ-150" value="" style="shape=tableRow;horizontal=0;startSize=0;swimlaneHead=0;swimlaneBody=0;fillColor=none;collapsible=0;dropTarget=0;points=[[0,0.5],[1,0.5]];portConstraint=eastwest;top=0;left=0;right=0;bottom=1;" vertex="1" parent="Wem_VNP8cEbjcYmOimlQ-149">
          <mxGeometry y="30" width="180" height="30" as="geometry" />
        </mxCell>
        <mxCell id="Wem_VNP8cEbjcYmOimlQ-151" value="PK" style="shape=partialRectangle;connectable=0;fillColor=none;top=0;left=0;bottom=0;right=0;fontStyle=1;overflow=hidden;whiteSpace=wrap;html=1;" vertex="1" parent="Wem_VNP8cEbjcYmOimlQ-150">
          <mxGeometry width="30" height="30" as="geometry">
            <mxRectangle width="30" height="30" as="alternateBounds" />
          </mxGeometry>
        </mxCell>
        <mxCell id="Wem_VNP8cEbjcYmOimlQ-152" value="Id: int" style="shape=partialRectangle;connectable=0;fillColor=none;top=0;left=0;bottom=0;right=0;align=left;spacingLeft=6;fontStyle=5;overflow=hidden;whiteSpace=wrap;html=1;" vertex="1" parent="Wem_VNP8cEbjcYmOimlQ-150">
          <mxGeometry x="30" width="150" height="30" as="geometry">
            <mxRectangle width="150" height="30" as="alternateBounds" />
          </mxGeometry>
        </mxCell>
        <mxCell id="Wem_VNP8cEbjcYmOimlQ-153" value="" style="shape=tableRow;horizontal=0;startSize=0;swimlaneHead=0;swimlaneBody=0;fillColor=none;collapsible=0;dropTarget=0;points=[[0,0.5],[1,0.5]];portConstraint=eastwest;top=0;left=0;right=0;bottom=0;" vertex="1" parent="Wem_VNP8cEbjcYmOimlQ-149">
          <mxGeometry y="60" width="180" height="30" as="geometry" />
        </mxCell>
        <mxCell id="Wem_VNP8cEbjcYmOimlQ-154" value="" style="shape=partialRectangle;connectable=0;fillColor=none;top=0;left=0;bottom=0;right=0;editable=1;overflow=hidden;whiteSpace=wrap;html=1;" vertex="1" parent="Wem_VNP8cEbjcYmOimlQ-153">
          <mxGeometry width="30" height="30" as="geometry">
            <mxRectangle width="30" height="30" as="alternateBounds" />
          </mxGeometry>
        </mxCell>
        <mxCell id="Wem_VNP8cEbjcYmOimlQ-155" value="Name: varchar(40)" style="shape=partialRectangle;connectable=0;fillColor=none;top=0;left=0;bottom=0;right=0;align=left;spacingLeft=6;overflow=hidden;whiteSpace=wrap;html=1;" vertex="1" parent="Wem_VNP8cEbjcYmOimlQ-153">
          <mxGeometry x="30" width="150" height="30" as="geometry">
            <mxRectangle width="150" height="30" as="alternateBounds" />
          </mxGeometry>
        </mxCell>
        <mxCell id="Wem_VNP8cEbjcYmOimlQ-156" value="" style="shape=tableRow;horizontal=0;startSize=0;swimlaneHead=0;swimlaneBody=0;fillColor=none;collapsible=0;dropTarget=0;points=[[0,0.5],[1,0.5]];portConstraint=eastwest;top=0;left=0;right=0;bottom=0;" vertex="1" parent="Wem_VNP8cEbjcYmOimlQ-149">
          <mxGeometry y="90" width="180" height="30" as="geometry" />
        </mxCell>
        <mxCell id="Wem_VNP8cEbjcYmOimlQ-157" value="" style="shape=partialRectangle;connectable=0;fillColor=none;top=0;left=0;bottom=0;right=0;editable=1;overflow=hidden;whiteSpace=wrap;html=1;" vertex="1" parent="Wem_VNP8cEbjcYmOimlQ-156">
          <mxGeometry width="30" height="30" as="geometry">
            <mxRectangle width="30" height="30" as="alternateBounds" />
          </mxGeometry>
        </mxCell>
        <mxCell id="Wem_VNP8cEbjcYmOimlQ-158" value="Continent: varchar(40)" style="shape=partialRectangle;connectable=0;fillColor=none;top=0;left=0;bottom=0;right=0;align=left;spacingLeft=6;overflow=hidden;whiteSpace=wrap;html=1;" vertex="1" parent="Wem_VNP8cEbjcYmOimlQ-156">
          <mxGeometry x="30" width="150" height="30" as="geometry">
            <mxRectangle width="150" height="30" as="alternateBounds" />
          </mxGeometry>
        </mxCell>
        <mxCell id="Wem_VNP8cEbjcYmOimlQ-159" value="" style="shape=tableRow;horizontal=0;startSize=0;swimlaneHead=0;swimlaneBody=0;fillColor=none;collapsible=0;dropTarget=0;points=[[0,0.5],[1,0.5]];portConstraint=eastwest;top=0;left=0;right=0;bottom=0;" vertex="1" parent="Wem_VNP8cEbjcYmOimlQ-149">
          <mxGeometry y="120" width="180" height="20" as="geometry" />
        </mxCell>
        <mxCell id="Wem_VNP8cEbjcYmOimlQ-160" value="" style="shape=partialRectangle;connectable=0;fillColor=none;top=0;left=0;bottom=0;right=0;editable=1;overflow=hidden;whiteSpace=wrap;html=1;" vertex="1" parent="Wem_VNP8cEbjcYmOimlQ-159">
          <mxGeometry width="30" height="20" as="geometry">
            <mxRectangle width="30" height="20" as="alternateBounds" />
          </mxGeometry>
        </mxCell>
        <mxCell id="Wem_VNP8cEbjcYmOimlQ-161" value="" style="shape=partialRectangle;connectable=0;fillColor=none;top=0;left=0;bottom=0;right=0;align=left;spacingLeft=6;overflow=hidden;whiteSpace=wrap;html=1;" vertex="1" parent="Wem_VNP8cEbjcYmOimlQ-159">
          <mxGeometry x="30" width="150" height="20" as="geometry">
            <mxRectangle width="150" height="20" as="alternateBounds" />
          </mxGeometry>
        </mxCell>
        <mxCell id="Wem_VNP8cEbjcYmOimlQ-162" value="Club" style="shape=table;startSize=30;container=1;collapsible=1;childLayout=tableLayout;fixedRows=1;rowLines=0;fontStyle=1;align=center;resizeLast=1;html=1;" vertex="1" parent="1">
          <mxGeometry x="590" y="310" width="180" height="180" as="geometry" />
        </mxCell>
        <mxCell id="Wem_VNP8cEbjcYmOimlQ-163" value="" style="shape=tableRow;horizontal=0;startSize=0;swimlaneHead=0;swimlaneBody=0;fillColor=none;collapsible=0;dropTarget=0;points=[[0,0.5],[1,0.5]];portConstraint=eastwest;top=0;left=0;right=0;bottom=1;" vertex="1" parent="Wem_VNP8cEbjcYmOimlQ-162">
          <mxGeometry y="30" width="180" height="30" as="geometry" />
        </mxCell>
        <mxCell id="Wem_VNP8cEbjcYmOimlQ-164" value="PK" style="shape=partialRectangle;connectable=0;fillColor=none;top=0;left=0;bottom=0;right=0;fontStyle=1;overflow=hidden;whiteSpace=wrap;html=1;" vertex="1" parent="Wem_VNP8cEbjcYmOimlQ-163">
          <mxGeometry width="30" height="30" as="geometry">
            <mxRectangle width="30" height="30" as="alternateBounds" />
          </mxGeometry>
        </mxCell>
        <mxCell id="Wem_VNP8cEbjcYmOimlQ-165" value="Id: int" style="shape=partialRectangle;connectable=0;fillColor=none;top=0;left=0;bottom=0;right=0;align=left;spacingLeft=6;fontStyle=5;overflow=hidden;whiteSpace=wrap;html=1;" vertex="1" parent="Wem_VNP8cEbjcYmOimlQ-163">
          <mxGeometry x="30" width="150" height="30" as="geometry">
            <mxRectangle width="150" height="30" as="alternateBounds" />
          </mxGeometry>
        </mxCell>
        <mxCell id="Wem_VNP8cEbjcYmOimlQ-166" value="" style="shape=tableRow;horizontal=0;startSize=0;swimlaneHead=0;swimlaneBody=0;fillColor=none;collapsible=0;dropTarget=0;points=[[0,0.5],[1,0.5]];portConstraint=eastwest;top=0;left=0;right=0;bottom=0;" vertex="1" parent="Wem_VNP8cEbjcYmOimlQ-162">
          <mxGeometry y="60" width="180" height="30" as="geometry" />
        </mxCell>
        <mxCell id="Wem_VNP8cEbjcYmOimlQ-167" value="" style="shape=partialRectangle;connectable=0;fillColor=none;top=0;left=0;bottom=0;right=0;editable=1;overflow=hidden;whiteSpace=wrap;html=1;" vertex="1" parent="Wem_VNP8cEbjcYmOimlQ-166">
          <mxGeometry width="30" height="30" as="geometry">
            <mxRectangle width="30" height="30" as="alternateBounds" />
          </mxGeometry>
        </mxCell>
        <mxCell id="Wem_VNP8cEbjcYmOimlQ-168" value="Name: varchar(50)" style="shape=partialRectangle;connectable=0;fillColor=none;top=0;left=0;bottom=0;right=0;align=left;spacingLeft=6;overflow=hidden;whiteSpace=wrap;html=1;" vertex="1" parent="Wem_VNP8cEbjcYmOimlQ-166">
          <mxGeometry x="30" width="150" height="30" as="geometry">
            <mxRectangle width="150" height="30" as="alternateBounds" />
          </mxGeometry>
        </mxCell>
        <mxCell id="Wem_VNP8cEbjcYmOimlQ-169" value="" style="shape=tableRow;horizontal=0;startSize=0;swimlaneHead=0;swimlaneBody=0;fillColor=none;collapsible=0;dropTarget=0;points=[[0,0.5],[1,0.5]];portConstraint=eastwest;top=0;left=0;right=0;bottom=0;" vertex="1" parent="Wem_VNP8cEbjcYmOimlQ-162">
          <mxGeometry y="90" width="180" height="30" as="geometry" />
        </mxCell>
        <mxCell id="Wem_VNP8cEbjcYmOimlQ-170" value="FK" style="shape=partialRectangle;connectable=0;fillColor=none;top=0;left=0;bottom=0;right=0;editable=1;overflow=hidden;whiteSpace=wrap;html=1;" vertex="1" parent="Wem_VNP8cEbjcYmOimlQ-169">
          <mxGeometry width="30" height="30" as="geometry">
            <mxRectangle width="30" height="30" as="alternateBounds" />
          </mxGeometry>
        </mxCell>
        <mxCell id="Wem_VNP8cEbjcYmOimlQ-171" value="IdStadium: int" style="shape=partialRectangle;connectable=0;fillColor=none;top=0;left=0;bottom=0;right=0;align=left;spacingLeft=6;overflow=hidden;whiteSpace=wrap;html=1;" vertex="1" parent="Wem_VNP8cEbjcYmOimlQ-169">
          <mxGeometry x="30" width="150" height="30" as="geometry">
            <mxRectangle width="150" height="30" as="alternateBounds" />
          </mxGeometry>
        </mxCell>
        <mxCell id="Wem_VNP8cEbjcYmOimlQ-172" value="" style="shape=tableRow;horizontal=0;startSize=0;swimlaneHead=0;swimlaneBody=0;fillColor=none;collapsible=0;dropTarget=0;points=[[0,0.5],[1,0.5]];portConstraint=eastwest;top=0;left=0;right=0;bottom=0;" vertex="1" parent="Wem_VNP8cEbjcYmOimlQ-162">
          <mxGeometry y="120" width="180" height="30" as="geometry" />
        </mxCell>
        <mxCell id="Wem_VNP8cEbjcYmOimlQ-173" value="FK" style="shape=partialRectangle;connectable=0;fillColor=none;top=0;left=0;bottom=0;right=0;editable=1;overflow=hidden;whiteSpace=wrap;html=1;" vertex="1" parent="Wem_VNP8cEbjcYmOimlQ-172">
          <mxGeometry width="30" height="30" as="geometry">
            <mxRectangle width="30" height="30" as="alternateBounds" />
          </mxGeometry>
        </mxCell>
        <mxCell id="Wem_VNP8cEbjcYmOimlQ-174" value="IdUser: int" style="shape=partialRectangle;connectable=0;fillColor=none;top=0;left=0;bottom=0;right=0;align=left;spacingLeft=6;overflow=hidden;whiteSpace=wrap;html=1;" vertex="1" parent="Wem_VNP8cEbjcYmOimlQ-172">
          <mxGeometry x="30" width="150" height="30" as="geometry">
            <mxRectangle width="150" height="30" as="alternateBounds" />
          </mxGeometry>
        </mxCell>
        <mxCell id="Wem_VNP8cEbjcYmOimlQ-175" value="" style="shape=tableRow;horizontal=0;startSize=0;swimlaneHead=0;swimlaneBody=0;fillColor=none;collapsible=0;dropTarget=0;points=[[0,0.5],[1,0.5]];portConstraint=eastwest;top=0;left=0;right=0;bottom=0;" vertex="1" parent="Wem_VNP8cEbjcYmOimlQ-162">
          <mxGeometry y="150" width="180" height="30" as="geometry" />
        </mxCell>
        <mxCell id="Wem_VNP8cEbjcYmOimlQ-176" value="FK" style="shape=partialRectangle;connectable=0;fillColor=none;top=0;left=0;bottom=0;right=0;editable=1;overflow=hidden;whiteSpace=wrap;html=1;" vertex="1" parent="Wem_VNP8cEbjcYmOimlQ-175">
          <mxGeometry width="30" height="30" as="geometry">
            <mxRectangle width="30" height="30" as="alternateBounds" />
          </mxGeometry>
        </mxCell>
        <mxCell id="Wem_VNP8cEbjcYmOimlQ-177" value="IdCountry: int" style="shape=partialRectangle;connectable=0;fillColor=none;top=0;left=0;bottom=0;right=0;align=left;spacingLeft=6;overflow=hidden;whiteSpace=wrap;html=1;" vertex="1" parent="Wem_VNP8cEbjcYmOimlQ-175">
          <mxGeometry x="30" width="150" height="30" as="geometry">
            <mxRectangle width="150" height="30" as="alternateBounds" />
          </mxGeometry>
        </mxCell>
        <mxCell id="Wem_VNP8cEbjcYmOimlQ-178" value="Application" style="shape=table;startSize=30;container=1;collapsible=1;childLayout=tableLayout;fixedRows=1;rowLines=0;fontStyle=1;align=center;resizeLast=1;html=1;" vertex="1" parent="1">
          <mxGeometry x="610" y="800" width="180" height="180" as="geometry" />
        </mxCell>
        <mxCell id="Wem_VNP8cEbjcYmOimlQ-179" value="" style="shape=tableRow;horizontal=0;startSize=0;swimlaneHead=0;swimlaneBody=0;fillColor=none;collapsible=0;dropTarget=0;points=[[0,0.5],[1,0.5]];portConstraint=eastwest;top=0;left=0;right=0;bottom=1;" vertex="1" parent="Wem_VNP8cEbjcYmOimlQ-178">
          <mxGeometry y="30" width="180" height="30" as="geometry" />
        </mxCell>
        <mxCell id="Wem_VNP8cEbjcYmOimlQ-180" value="PK" style="shape=partialRectangle;connectable=0;fillColor=none;top=0;left=0;bottom=0;right=0;fontStyle=1;overflow=hidden;whiteSpace=wrap;html=1;" vertex="1" parent="Wem_VNP8cEbjcYmOimlQ-179">
          <mxGeometry width="30" height="30" as="geometry">
            <mxRectangle width="30" height="30" as="alternateBounds" />
          </mxGeometry>
        </mxCell>
        <mxCell id="Wem_VNP8cEbjcYmOimlQ-181" value="Id: int" style="shape=partialRectangle;connectable=0;fillColor=none;top=0;left=0;bottom=0;right=0;align=left;spacingLeft=6;fontStyle=5;overflow=hidden;whiteSpace=wrap;html=1;" vertex="1" parent="Wem_VNP8cEbjcYmOimlQ-179">
          <mxGeometry x="30" width="150" height="30" as="geometry">
            <mxRectangle width="150" height="30" as="alternateBounds" />
          </mxGeometry>
        </mxCell>
        <mxCell id="Wem_VNP8cEbjcYmOimlQ-182" value="" style="shape=tableRow;horizontal=0;startSize=0;swimlaneHead=0;swimlaneBody=0;fillColor=none;collapsible=0;dropTarget=0;points=[[0,0.5],[1,0.5]];portConstraint=eastwest;top=0;left=0;right=0;bottom=0;" vertex="1" parent="Wem_VNP8cEbjcYmOimlQ-178">
          <mxGeometry y="60" width="180" height="30" as="geometry" />
        </mxCell>
        <mxCell id="Wem_VNP8cEbjcYmOimlQ-183" value="" style="shape=partialRectangle;connectable=0;fillColor=none;top=0;left=0;bottom=0;right=0;editable=1;overflow=hidden;whiteSpace=wrap;html=1;" vertex="1" parent="Wem_VNP8cEbjcYmOimlQ-182">
          <mxGeometry width="30" height="30" as="geometry">
            <mxRectangle width="30" height="30" as="alternateBounds" />
          </mxGeometry>
        </mxCell>
        <mxCell id="Wem_VNP8cEbjcYmOimlQ-184" value="Time: DateTime" style="shape=partialRectangle;connectable=0;fillColor=none;top=0;left=0;bottom=0;right=0;align=left;spacingLeft=6;overflow=hidden;whiteSpace=wrap;html=1;" vertex="1" parent="Wem_VNP8cEbjcYmOimlQ-182">
          <mxGeometry x="30" width="150" height="30" as="geometry">
            <mxRectangle width="150" height="30" as="alternateBounds" />
          </mxGeometry>
        </mxCell>
        <mxCell id="Wem_VNP8cEbjcYmOimlQ-185" value="" style="shape=tableRow;horizontal=0;startSize=0;swimlaneHead=0;swimlaneBody=0;fillColor=none;collapsible=0;dropTarget=0;points=[[0,0.5],[1,0.5]];portConstraint=eastwest;top=0;left=0;right=0;bottom=0;" vertex="1" parent="Wem_VNP8cEbjcYmOimlQ-178">
          <mxGeometry y="90" width="180" height="30" as="geometry" />
        </mxCell>
        <mxCell id="Wem_VNP8cEbjcYmOimlQ-186" value="FK" style="shape=partialRectangle;connectable=0;fillColor=none;top=0;left=0;bottom=0;right=0;editable=1;overflow=hidden;whiteSpace=wrap;html=1;" vertex="1" parent="Wem_VNP8cEbjcYmOimlQ-185">
          <mxGeometry width="30" height="30" as="geometry">
            <mxRectangle width="30" height="30" as="alternateBounds" />
          </mxGeometry>
        </mxCell>
        <mxCell id="Wem_VNP8cEbjcYmOimlQ-187" value="IdLeague: int" style="shape=partialRectangle;connectable=0;fillColor=none;top=0;left=0;bottom=0;right=0;align=left;spacingLeft=6;overflow=hidden;whiteSpace=wrap;html=1;" vertex="1" parent="Wem_VNP8cEbjcYmOimlQ-185">
          <mxGeometry x="30" width="150" height="30" as="geometry">
            <mxRectangle width="150" height="30" as="alternateBounds" />
          </mxGeometry>
        </mxCell>
        <mxCell id="Wem_VNP8cEbjcYmOimlQ-188" value="" style="shape=tableRow;horizontal=0;startSize=0;swimlaneHead=0;swimlaneBody=0;fillColor=none;collapsible=0;dropTarget=0;points=[[0,0.5],[1,0.5]];portConstraint=eastwest;top=0;left=0;right=0;bottom=0;" vertex="1" parent="Wem_VNP8cEbjcYmOimlQ-178">
          <mxGeometry y="120" width="180" height="30" as="geometry" />
        </mxCell>
        <mxCell id="Wem_VNP8cEbjcYmOimlQ-189" value="FK" style="shape=partialRectangle;connectable=0;fillColor=none;top=0;left=0;bottom=0;right=0;editable=1;overflow=hidden;whiteSpace=wrap;html=1;" vertex="1" parent="Wem_VNP8cEbjcYmOimlQ-188">
          <mxGeometry width="30" height="30" as="geometry">
            <mxRectangle width="30" height="30" as="alternateBounds" />
          </mxGeometry>
        </mxCell>
        <mxCell id="Wem_VNP8cEbjcYmOimlQ-190" value="IdClub: int" style="shape=partialRectangle;connectable=0;fillColor=none;top=0;left=0;bottom=0;right=0;align=left;spacingLeft=6;overflow=hidden;whiteSpace=wrap;html=1;" vertex="1" parent="Wem_VNP8cEbjcYmOimlQ-188">
          <mxGeometry x="30" width="150" height="30" as="geometry">
            <mxRectangle width="150" height="30" as="alternateBounds" />
          </mxGeometry>
        </mxCell>
        <mxCell id="Wem_VNP8cEbjcYmOimlQ-191" value="" style="shape=tableRow;horizontal=0;startSize=0;swimlaneHead=0;swimlaneBody=0;fillColor=none;collapsible=0;dropTarget=0;points=[[0,0.5],[1,0.5]];portConstraint=eastwest;top=0;left=0;right=0;bottom=0;" vertex="1" parent="Wem_VNP8cEbjcYmOimlQ-178">
          <mxGeometry y="150" width="180" height="30" as="geometry" />
        </mxCell>
        <mxCell id="Wem_VNP8cEbjcYmOimlQ-192" value="FK" style="shape=partialRectangle;connectable=0;fillColor=none;top=0;left=0;bottom=0;right=0;editable=1;overflow=hidden;whiteSpace=wrap;html=1;" vertex="1" parent="Wem_VNP8cEbjcYmOimlQ-191">
          <mxGeometry width="30" height="30" as="geometry">
            <mxRectangle width="30" height="30" as="alternateBounds" />
          </mxGeometry>
        </mxCell>
        <mxCell id="Wem_VNP8cEbjcYmOimlQ-193" value="IdUser: int" style="shape=partialRectangle;connectable=0;fillColor=none;top=0;left=0;bottom=0;right=0;align=left;spacingLeft=6;overflow=hidden;whiteSpace=wrap;html=1;" vertex="1" parent="Wem_VNP8cEbjcYmOimlQ-191">
          <mxGeometry x="30" width="150" height="30" as="geometry">
            <mxRectangle width="150" height="30" as="alternateBounds" />
          </mxGeometry>
        </mxCell>
        <mxCell id="Wem_VNP8cEbjcYmOimlQ-194" value="LeagueClub" style="shape=table;startSize=30;container=1;collapsible=1;childLayout=tableLayout;fixedRows=1;rowLines=0;fontStyle=1;align=center;resizeLast=1;html=1;" vertex="1" parent="1">
          <mxGeometry x="910" y="585" width="180" height="140" as="geometry" />
        </mxCell>
        <mxCell id="Wem_VNP8cEbjcYmOimlQ-195" value="" style="shape=tableRow;horizontal=0;startSize=0;swimlaneHead=0;swimlaneBody=0;fillColor=none;collapsible=0;dropTarget=0;points=[[0,0.5],[1,0.5]];portConstraint=eastwest;top=0;left=0;right=0;bottom=1;" vertex="1" parent="Wem_VNP8cEbjcYmOimlQ-194">
          <mxGeometry y="30" width="180" height="30" as="geometry" />
        </mxCell>
        <mxCell id="Wem_VNP8cEbjcYmOimlQ-196" value="PK" style="shape=partialRectangle;connectable=0;fillColor=none;top=0;left=0;bottom=0;right=0;fontStyle=1;overflow=hidden;whiteSpace=wrap;html=1;" vertex="1" parent="Wem_VNP8cEbjcYmOimlQ-195">
          <mxGeometry width="30" height="30" as="geometry">
            <mxRectangle width="30" height="30" as="alternateBounds" />
          </mxGeometry>
        </mxCell>
        <mxCell id="Wem_VNP8cEbjcYmOimlQ-197" value="Id: int" style="shape=partialRectangle;connectable=0;fillColor=none;top=0;left=0;bottom=0;right=0;align=left;spacingLeft=6;fontStyle=5;overflow=hidden;whiteSpace=wrap;html=1;" vertex="1" parent="Wem_VNP8cEbjcYmOimlQ-195">
          <mxGeometry x="30" width="150" height="30" as="geometry">
            <mxRectangle width="150" height="30" as="alternateBounds" />
          </mxGeometry>
        </mxCell>
        <mxCell id="Wem_VNP8cEbjcYmOimlQ-198" value="" style="shape=tableRow;horizontal=0;startSize=0;swimlaneHead=0;swimlaneBody=0;fillColor=none;collapsible=0;dropTarget=0;points=[[0,0.5],[1,0.5]];portConstraint=eastwest;top=0;left=0;right=0;bottom=0;" vertex="1" parent="Wem_VNP8cEbjcYmOimlQ-194">
          <mxGeometry y="60" width="180" height="30" as="geometry" />
        </mxCell>
        <mxCell id="Wem_VNP8cEbjcYmOimlQ-199" value="FK" style="shape=partialRectangle;connectable=0;fillColor=none;top=0;left=0;bottom=0;right=0;editable=1;overflow=hidden;whiteSpace=wrap;html=1;" vertex="1" parent="Wem_VNP8cEbjcYmOimlQ-198">
          <mxGeometry width="30" height="30" as="geometry">
            <mxRectangle width="30" height="30" as="alternateBounds" />
          </mxGeometry>
        </mxCell>
        <mxCell id="Wem_VNP8cEbjcYmOimlQ-200" value="IdLeague: int" style="shape=partialRectangle;connectable=0;fillColor=none;top=0;left=0;bottom=0;right=0;align=left;spacingLeft=6;overflow=hidden;whiteSpace=wrap;html=1;" vertex="1" parent="Wem_VNP8cEbjcYmOimlQ-198">
          <mxGeometry x="30" width="150" height="30" as="geometry">
            <mxRectangle width="150" height="30" as="alternateBounds" />
          </mxGeometry>
        </mxCell>
        <mxCell id="Wem_VNP8cEbjcYmOimlQ-201" value="" style="shape=tableRow;horizontal=0;startSize=0;swimlaneHead=0;swimlaneBody=0;fillColor=none;collapsible=0;dropTarget=0;points=[[0,0.5],[1,0.5]];portConstraint=eastwest;top=0;left=0;right=0;bottom=0;" vertex="1" parent="Wem_VNP8cEbjcYmOimlQ-194">
          <mxGeometry y="90" width="180" height="30" as="geometry" />
        </mxCell>
        <mxCell id="Wem_VNP8cEbjcYmOimlQ-202" value="FK" style="shape=partialRectangle;connectable=0;fillColor=none;top=0;left=0;bottom=0;right=0;editable=1;overflow=hidden;whiteSpace=wrap;html=1;" vertex="1" parent="Wem_VNP8cEbjcYmOimlQ-201">
          <mxGeometry width="30" height="30" as="geometry">
            <mxRectangle width="30" height="30" as="alternateBounds" />
          </mxGeometry>
        </mxCell>
        <mxCell id="Wem_VNP8cEbjcYmOimlQ-203" value="IdClub: int" style="shape=partialRectangle;connectable=0;fillColor=none;top=0;left=0;bottom=0;right=0;align=left;spacingLeft=6;overflow=hidden;whiteSpace=wrap;html=1;" vertex="1" parent="Wem_VNP8cEbjcYmOimlQ-201">
          <mxGeometry x="30" width="150" height="30" as="geometry">
            <mxRectangle width="150" height="30" as="alternateBounds" />
          </mxGeometry>
        </mxCell>
        <mxCell id="Wem_VNP8cEbjcYmOimlQ-204" value="" style="shape=tableRow;horizontal=0;startSize=0;swimlaneHead=0;swimlaneBody=0;fillColor=none;collapsible=0;dropTarget=0;points=[[0,0.5],[1,0.5]];portConstraint=eastwest;top=0;left=0;right=0;bottom=0;" vertex="1" parent="Wem_VNP8cEbjcYmOimlQ-194">
          <mxGeometry y="120" width="180" height="20" as="geometry" />
        </mxCell>
        <mxCell id="Wem_VNP8cEbjcYmOimlQ-205" value="" style="shape=partialRectangle;connectable=0;fillColor=none;top=0;left=0;bottom=0;right=0;editable=1;overflow=hidden;whiteSpace=wrap;html=1;" vertex="1" parent="Wem_VNP8cEbjcYmOimlQ-204">
          <mxGeometry width="30" height="20" as="geometry">
            <mxRectangle width="30" height="20" as="alternateBounds" />
          </mxGeometry>
        </mxCell>
        <mxCell id="Wem_VNP8cEbjcYmOimlQ-206" value="" style="shape=partialRectangle;connectable=0;fillColor=none;top=0;left=0;bottom=0;right=0;align=left;spacingLeft=6;overflow=hidden;whiteSpace=wrap;html=1;" vertex="1" parent="Wem_VNP8cEbjcYmOimlQ-204">
          <mxGeometry x="30" width="150" height="20" as="geometry">
            <mxRectangle width="150" height="20" as="alternateBounds" />
          </mxGeometry>
        </mxCell>
        <mxCell id="Wem_VNP8cEbjcYmOimlQ-215" value="" style="edgeStyle=orthogonalEdgeStyle;fontSize=12;html=1;endArrow=ERmany;rounded=0;" edge="1" parent="1" source="Wem_VNP8cEbjcYmOimlQ-105" target="Wem_VNP8cEbjcYmOimlQ-76">
          <mxGeometry width="100" height="100" relative="1" as="geometry">
            <mxPoint x="640" y="510" as="sourcePoint" />
            <mxPoint x="740" y="410" as="targetPoint" />
          </mxGeometry>
        </mxCell>
        <mxCell id="Wem_VNP8cEbjcYmOimlQ-217" value="" style="edgeStyle=orthogonalEdgeStyle;fontSize=12;html=1;endArrow=ERmany;rounded=0;" edge="1" parent="1" source="Wem_VNP8cEbjcYmOimlQ-51" target="Wem_VNP8cEbjcYmOimlQ-79">
          <mxGeometry width="100" height="100" relative="1" as="geometry">
            <mxPoint x="640" y="510" as="sourcePoint" />
            <mxPoint x="740" y="410" as="targetPoint" />
          </mxGeometry>
        </mxCell>
        <mxCell id="Wem_VNP8cEbjcYmOimlQ-218" value="" style="edgeStyle=orthogonalEdgeStyle;fontSize=12;html=1;endArrow=ERmany;rounded=0;" edge="1" parent="1" source="Wem_VNP8cEbjcYmOimlQ-163" target="Wem_VNP8cEbjcYmOimlQ-98">
          <mxGeometry width="100" height="100" relative="1" as="geometry">
            <mxPoint x="640" y="510" as="sourcePoint" />
            <mxPoint x="740" y="410" as="targetPoint" />
          </mxGeometry>
        </mxCell>
        <mxCell id="Wem_VNP8cEbjcYmOimlQ-219" value="" style="edgeStyle=orthogonalEdgeStyle;fontSize=12;html=1;endArrow=ERmany;rounded=0;exitX=0;exitY=0.5;exitDx=0;exitDy=0;" edge="1" parent="1" source="Wem_VNP8cEbjcYmOimlQ-163" target="Wem_VNP8cEbjcYmOimlQ-101">
          <mxGeometry width="100" height="100" relative="1" as="geometry">
            <mxPoint x="640" y="510" as="sourcePoint" />
            <mxPoint x="740" y="410" as="targetPoint" />
          </mxGeometry>
        </mxCell>
        <mxCell id="Wem_VNP8cEbjcYmOimlQ-220" value="" style="edgeStyle=orthogonalEdgeStyle;fontSize=12;html=1;endArrow=ERmany;rounded=0;" edge="1" parent="1" source="Wem_VNP8cEbjcYmOimlQ-29" target="Wem_VNP8cEbjcYmOimlQ-130">
          <mxGeometry width="100" height="100" relative="1" as="geometry">
            <mxPoint x="640" y="710" as="sourcePoint" />
            <mxPoint x="740" y="610" as="targetPoint" />
          </mxGeometry>
        </mxCell>
        <mxCell id="Wem_VNP8cEbjcYmOimlQ-221" value="" style="edgeStyle=orthogonalEdgeStyle;fontSize=12;html=1;endArrow=ERmany;rounded=0;" edge="1" parent="1" source="Wem_VNP8cEbjcYmOimlQ-105" target="Wem_VNP8cEbjcYmOimlQ-133">
          <mxGeometry width="100" height="100" relative="1" as="geometry">
            <mxPoint x="640" y="710" as="sourcePoint" />
            <mxPoint x="740" y="610" as="targetPoint" />
          </mxGeometry>
        </mxCell>
        <mxCell id="Wem_VNP8cEbjcYmOimlQ-222" value="" style="edgeStyle=orthogonalEdgeStyle;fontSize=12;html=1;endArrow=ERmany;rounded=0;" edge="1" parent="1" source="Wem_VNP8cEbjcYmOimlQ-105" target="Wem_VNP8cEbjcYmOimlQ-185">
          <mxGeometry width="100" height="100" relative="1" as="geometry">
            <mxPoint x="610" y="710" as="sourcePoint" />
            <mxPoint x="710" y="610" as="targetPoint" />
          </mxGeometry>
        </mxCell>
        <mxCell id="Wem_VNP8cEbjcYmOimlQ-223" value="" style="edgeStyle=orthogonalEdgeStyle;fontSize=12;html=1;endArrow=ERmany;rounded=0;" edge="1" parent="1" source="Wem_VNP8cEbjcYmOimlQ-163" target="Wem_VNP8cEbjcYmOimlQ-188">
          <mxGeometry width="100" height="100" relative="1" as="geometry">
            <mxPoint x="610" y="710" as="sourcePoint" />
            <mxPoint x="710" y="610" as="targetPoint" />
          </mxGeometry>
        </mxCell>
        <mxCell id="Wem_VNP8cEbjcYmOimlQ-224" value="" style="edgeStyle=orthogonalEdgeStyle;fontSize=12;html=1;endArrow=ERmany;rounded=0;" edge="1" parent="1" source="Wem_VNP8cEbjcYmOimlQ-29" target="Wem_VNP8cEbjcYmOimlQ-191">
          <mxGeometry width="100" height="100" relative="1" as="geometry">
            <mxPoint x="610" y="810" as="sourcePoint" />
            <mxPoint x="710" y="710" as="targetPoint" />
          </mxGeometry>
        </mxCell>
        <mxCell id="Wem_VNP8cEbjcYmOimlQ-225" value="" style="edgeStyle=orthogonalEdgeStyle;fontSize=12;html=1;endArrow=ERmany;rounded=0;" edge="1" parent="1" source="Wem_VNP8cEbjcYmOimlQ-105" target="Wem_VNP8cEbjcYmOimlQ-198">
          <mxGeometry width="100" height="100" relative="1" as="geometry">
            <mxPoint x="610" y="710" as="sourcePoint" />
            <mxPoint x="720" y="670" as="targetPoint" />
          </mxGeometry>
        </mxCell>
        <mxCell id="Wem_VNP8cEbjcYmOimlQ-226" value="" style="edgeStyle=orthogonalEdgeStyle;fontSize=12;html=1;endArrow=ERmany;rounded=0;" edge="1" parent="1" source="Wem_VNP8cEbjcYmOimlQ-163" target="Wem_VNP8cEbjcYmOimlQ-201">
          <mxGeometry width="100" height="100" relative="1" as="geometry">
            <mxPoint x="610" y="510" as="sourcePoint" />
            <mxPoint x="710" y="410" as="targetPoint" />
          </mxGeometry>
        </mxCell>
        <mxCell id="Wem_VNP8cEbjcYmOimlQ-227" value="" style="edgeStyle=orthogonalEdgeStyle;fontSize=12;html=1;endArrow=ERmany;rounded=0;" edge="1" parent="1" source="Wem_VNP8cEbjcYmOimlQ-51" target="Wem_VNP8cEbjcYmOimlQ-166">
          <mxGeometry width="100" height="100" relative="1" as="geometry">
            <mxPoint x="610" y="510" as="sourcePoint" />
            <mxPoint x="710" y="410" as="targetPoint" />
            <Array as="points">
              <mxPoint x="500" y="650" />
              <mxPoint x="500" y="345" />
              <mxPoint x="560" y="345" />
              <mxPoint x="560" y="386" />
            </Array>
          </mxGeometry>
        </mxCell>
        <mxCell id="Wem_VNP8cEbjcYmOimlQ-228" value="" style="edgeStyle=orthogonalEdgeStyle;fontSize=12;html=1;endArrow=ERmany;rounded=0;" edge="1" parent="1" source="Wem_VNP8cEbjcYmOimlQ-29" target="Wem_VNP8cEbjcYmOimlQ-172">
          <mxGeometry width="100" height="100" relative="1" as="geometry">
            <mxPoint x="610" y="510" as="sourcePoint" />
            <mxPoint x="710" y="410" as="targetPoint" />
          </mxGeometry>
        </mxCell>
        <mxCell id="Wem_VNP8cEbjcYmOimlQ-229" value="" style="edgeStyle=orthogonalEdgeStyle;fontSize=12;html=1;endArrow=ERmany;rounded=0;" edge="1" parent="1" source="Wem_VNP8cEbjcYmOimlQ-150" target="Wem_VNP8cEbjcYmOimlQ-175">
          <mxGeometry width="100" height="100" relative="1" as="geometry">
            <mxPoint x="610" y="610" as="sourcePoint" />
            <mxPoint x="710" y="510" as="targetPoint" />
          </mxGeometry>
        </mxCell>
        <mxCell id="Wem_VNP8cEbjcYmOimlQ-230" value="" style="edgeStyle=orthogonalEdgeStyle;fontSize=12;html=1;endArrow=ERmany;rounded=0;" edge="1" parent="1" source="Wem_VNP8cEbjcYmOimlQ-29" target="Wem_VNP8cEbjcYmOimlQ-114">
          <mxGeometry width="100" height="100" relative="1" as="geometry">
            <mxPoint x="610" y="510" as="sourcePoint" />
            <mxPoint x="710" y="410" as="targetPoint" />
          </mxGeometry>
        </mxCell>
        <mxCell id="Wem_VNP8cEbjcYmOimlQ-231" value="" style="edgeStyle=orthogonalEdgeStyle;fontSize=12;html=1;endArrow=ERmany;rounded=0;" edge="1" parent="1" source="Wem_VNP8cEbjcYmOimlQ-150" target="Wem_VNP8cEbjcYmOimlQ-117">
          <mxGeometry width="100" height="100" relative="1" as="geometry">
            <mxPoint x="610" y="510" as="sourcePoint" />
            <mxPoint x="710" y="410" as="targetPoint" />
          </mxGeometry>
        </mxCell>
        <mxCell id="Wem_VNP8cEbjcYmOimlQ-232" value="" style="edgeStyle=orthogonalEdgeStyle;fontSize=12;html=1;endArrow=ERmany;rounded=0;" edge="1" parent="1" source="Wem_VNP8cEbjcYmOimlQ-150" target="Wem_VNP8cEbjcYmOimlQ-60">
          <mxGeometry width="100" height="100" relative="1" as="geometry">
            <mxPoint x="610" y="610" as="sourcePoint" />
            <mxPoint x="710" y="510" as="targetPoint" />
          </mxGeometry>
        </mxCell>
      </root>
    </mxGraphModel>
  </diagram>
</mxfile>
